<svg id="Capa_1" data-name="Capa 1" xmlns="http://www.w3.org/2000/svg" xmlns:xlink="http://www.w3.org/1999/xlink" viewBox="0 0 1352.3 462"><defs><style>.cls-1{fill:url(#Degradado_sin_nombre_22);}.cls-2{fill:#d0b58d;}.cls-3{fill:#c9af8d;}</style><linearGradient id="Degradado_sin_nombre_22" x1="-633.7" y1="-364.97" x2="-633.7" y2="-1791.94" gradientTransform="translate(-434.3 883.87) rotate(90)" gradientUnits="userSpaceOnUse"><stop offset="0.65" stop-color="#1d5b4f"/><stop offset="0.77" stop-color="#1c584c"/><stop offset="0.86" stop-color="#184d43"/><stop offset="0.96" stop-color="#123c34"/><stop offset="1" stop-color="#0e312b"/></linearGradient></defs><title>1351X462</title><rect class="cls-1" y="38.34" width="1352.3" height="423.66"/><path class="cls-2" d="M177.29,38.34h-5a3,3,0,0,0-1.17-1.18l-5.33-1.71a1.08,1.08,0,0,1-.55-1,1.38,1.38,0,0,1,.75-1.29l.76-.08c3.08.73,6,1.4,9,.15.76-.36.95-.38,1.1-.32s.39.29.74,1.17A9.08,9.08,0,0,1,177.29,38.34Zm-137-3.92L39.8,34c-.26,0-.63.2-.95.57a2.41,2.41,0,0,0-.39,2.44l.73,1.29H43A21.87,21.87,0,0,0,40.26,34.42Zm190.92,3.92A11.24,11.24,0,0,0,228,33.81c-3.14-2.43-12.39-5.6-25.35-8.72a2.58,2.58,0,0,0-1.24.18,1.18,1.18,0,0,0-.68,1.08,2,2,0,0,0,1.52,1.43A78.77,78.77,0,0,1,223.83,35,3.62,3.62,0,0,1,226,38.12a1.64,1.64,0,0,1,0,.22Zm5-3.47L235,38.34h2.05c.21-1,.42-2.13.6-3.26,0-.78-.18-1.2-.29-1.22S236.58,34.14,236.2,34.87Zm-38.32-3.59A3.76,3.76,0,0,0,200,33.56l17.94,4.78h3.24l.2-.24-.17-.48A65.61,65.61,0,0,0,197.88,31.28Zm-94.19-29c2.83-.83,6.4-1.57,8.2-.21a3.51,3.51,0,0,0,2.31-.41c1.08-.53,1.48-1.17,1.48-1.29l-.44-.16a6.61,6.61,0,0,0-.67-.24h-8.33a19.33,19.33,0,0,0-3.3,1Zm19.77,1.84c-.31.31-.32.51-.32.55s.23.57,1.74,1.19a2.61,2.61,0,0,0,1.65.1c.42-.17.3-.71.14-1C126.26,4.12,125.12,3.54,123.46,4.15Zm-3.35-.91c2.26-1.13,4.94-2.47,9,.37,1.08.79,1.2,1.49,1.17,2-.06.77-.29,1.14-1.48,1.71l-.06,0L129,8a3.85,3.85,0,0,0,2.15-.32,2.61,2.61,0,0,0,1.51-1.89A3.31,3.31,0,0,0,131.35,3C126.64-.49,123,.15,118.9,2.16l-.53.26c-.46.4-.5.77-.45.87S118.71,3.9,120.11,3.24Zm-14.72,2,1.38,2.39c7.26-.16,13.37,1.7,18.33,7.05,2.37,3.82,4.68,5.94,6.8,6.26l.5,0-.42-.9c-5.37-9.85-12.44-14.76-21.15-14.65A36.4,36.4,0,0,0,105.39,5.24Zm33,11.42c-.67-1.47-1.39-1.89-1.84-2a2.86,2.86,0,0,0-1.56.48c-.53.59-.81,1-.75,1.33s.5.72,1.11,1a4.65,4.65,0,0,0,2.54-.05A.93.93,0,0,0,138.43,16.66Zm104.65,15.4c-.21-.05-.8.29-1.19,1l-1.77,5.27h2.25c.38-1.58.72-3.26,1-5.06C243.41,32.5,243.2,32.09,243.08,32.06Zm-114.28-3c-4-3.81-11.67-8.25-14.87-9.08l.65,1.13a85.93,85.93,0,0,1,13.31,9.68C129.47,31.87,129.28,29.55,128.8,29.09Zm121.65-3a1.59,1.59,0,0,0-1.21.71c-.39.67-.77,1.34-1.13,2l-3.2,9.53h2.52a74.2,74.2,0,0,1,3.59-11C251.1,26.9,251.09,26.57,250.45,26.07ZM7.27,32.91l-.7-.54H6.18A5.74,5.74,0,0,0,5.23,36c.15.8.27,1.58.37,2.34H8.87C8.45,36.63,7.91,34.82,7.27,32.91ZM2.53,35.37a.89.89,0,0,0-.74.81c-.08.51-.14,1-.21,1.49v.67H3.12c0-.51.06-1,.11-1.54C3.14,35.74,2.77,35.39,2.53,35.37ZM4.88,7.42,2.45,23.74c0,.59.35.65.53.67s.64-.15.85-.75c1.71-4.11,2.5-9.44,2.43-16.26-.09-.76-.35-1.12-.46-1.13S5.12,6.66,4.88,7.42Zm13.9,20.92a1.6,1.6,0,0,0-.58-.53c-.07,0-.29.25-.49.94a11.12,11.12,0,0,0,.39,5l.09.17a12.73,12.73,0,0,1,.53,4.4h2.37A14.8,14.8,0,0,0,18.78,28.34ZM13.4,35.69c0-.57,1.09-1.23,1.29-.84.29.64.67,1.19.94,1.09,1,.25,0-4.1,0-4.1a1.88,1.88,0,0,0-1.4-.66,4.23,4.23,0,0,0-2,.46c-.91.21-1.51.67-1.27,2.19a22,22,0,0,0,.5,4.51h2.43A9.82,9.82,0,0,1,13.4,35.69ZM191,3.44a2.82,2.82,0,0,1-1.6,2.63,4.84,4.84,0,0,1-2.29.42l-15.35-.7h-.34l-.1.1c.2.68,1.75,2.17,3.85,2.76A74,74,0,0,0,186.7,10h1.05c1.66.06,4.22.14,5.63-.53A3.22,3.22,0,0,0,194.84,8a10.54,10.54,0,0,0-1.25-8h-4.17A5.17,5.17,0,0,1,191,3.44Zm10,34.2-1.39-.4a1.24,1.24,0,0,0-.26.94.88.88,0,0,0,0,.16h4.07ZM178,12.39l-.54,0-.2.37a2.63,2.63,0,0,0,1.58,1.88c4.13.69,8.34,1.45,10.91,2.51a4.37,4.37,0,0,1,2.85,3.52,2.38,2.38,0,0,1-1.25,2.41,3.57,3.57,0,0,1-2.28.22l-7.66-.54a1,1,0,0,0-.34,1,2.24,2.24,0,0,0,1.53,1.9l9.9,1.42a5.08,5.08,0,0,0,2.67-.35,3.37,3.37,0,0,0,1.44-1.41,10.82,10.82,0,0,0,.77-5.78,6.23,6.23,0,0,0-6-5.22Zm9,8.25a1.22,1.22,0,0,0,.69-1.28,1.3,1.3,0,0,0-1-1.06L180.56,18l-.42.73.54.89,5.87,1.14ZM198.19,12a2.2,2.2,0,0,0,.73,1.76,296.81,296.81,0,0,0,34.58,9.86l.67-.08.33-.49c0-.32-.25-.63-.65-.87a176.94,176.94,0,0,0-35.61-10.57ZM255.3,23.33c-.21,0-.77.36-1.08,1.11L251,38.34h2.07a46.3,46.3,0,0,0,2.6-13.81C255.67,23.74,255.42,23.35,255.3,23.33ZM200.38,6.09l-.25,0-.24.3a3,3,0,0,0,1.44,2.18c12.34,3.11,24.49,6.39,37.52,12.35a3.82,3.82,0,0,1,2.6,3.26,4,4,0,0,1-2.33,3.57,5,5,0,0,1-3.36.33c-8-1.78-16-4.34-23.79-6.84C208.59,20.13,205,19,201.81,18l-.71,0-.29.82a3.16,3.16,0,0,0,1.45,2.48l25.35,8.34a26.17,26.17,0,0,0,11.14,1.72A18.38,18.38,0,0,0,242.59,30c2.34-1.14,3.62-2.59,3.88-4.22s-.73-3.67-2.8-5.56C230.58,12.47,216.9,9,200.38,6.09ZM185.93,36l-3.5-.57-.49.1a1.17,1.17,0,0,0-.66,1.13,1.25,1.25,0,0,0,1,1l3.53.55.81-.1c.42-.21.4-.73.4-.94A1.5,1.5,0,0,0,185.93,36Zm-42.77-1.75c-.67-.74-1.4-1-1.83-.84l-.55.7a2.56,2.56,0,0,0,.51,2l1.42,2.26h3.18ZM71.37,3.54l.88.29c.85.11,1.87-.12,1.73-.36A14.91,14.91,0,0,0,70.64,0H66.86C68.24,1.15,69.73,2.33,71.37,3.54Zm61,28.63a12.29,12.29,0,0,0-.71,2.31,1.45,1.45,0,0,0,.67,1.61,2.28,2.28,0,0,0,2.34.14l.37-.19.08-.07,3.48-7.12a2.34,2.34,0,0,0-.23-2,2.21,2.21,0,0,0-1.08-1c-3.83-.35-7.69-2.72-12.59-6.21a26.23,26.23,0,0,0-13.44-4.22l.76,1.32c6.94,1.81,12.9,4,19.41,10.74a4.83,4.83,0,0,1,1.21,4ZM61.86,18.72l.46.12a1.4,1.4,0,0,0,1.4-.63,1.16,1.16,0,0,0-.08-1.4l-4.73-3.58-.82.35-.16,1ZM96.48,0h-4a2.41,2.41,0,0,0,.31.42c7.95,10.85,16.18,22.65,23.38,37.92h4.25A80.6,80.6,0,0,0,115.92,28,159.55,159.55,0,0,0,96.48,0ZM54.33,8.43a5.85,5.85,0,0,0-1.22-.74l-.24-.11-.64-.35a40.83,40.83,0,0,1-6.45-5.36l-.17.34c-.62,1.33-.6,2.22,0,2.91L48.77,8.4a4.16,4.16,0,0,1,.07,4.72,2.62,2.62,0,0,1-2.48,1.2A3.79,3.79,0,0,1,44,12.68c-.2-.4-.4-.59-.61-.62,0,0-.32,0-.89.37-2.17,1.29-2,2.39-1.54,3.16,2,2.69,3.82,4.1,5.5,4.35,1.3.16,2.6-.44,4-1.79a25.32,25.32,0,0,0,3.93-8.26A1.9,1.9,0,0,0,54.33,8.43ZM48.42,27.91a1.37,1.37,0,0,0-1.27.54,1.11,1.11,0,0,0,.18,1.34l2.45,2.38.71.36c.47.06.8-.36.94-.52a1.34,1.34,0,0,0-.14-1.53L48.88,28.1Zm144.07,3.94a24.17,24.17,0,0,0-10.18-2.17.82.82,0,0,0-.34.84,2.48,2.48,0,0,0,1.47,2l5.69,1.86a4,4,0,0,1,2,3.64c0,.13,0,.24,0,.36H196C196.13,35.56,195.71,33.45,192.49,31.85Zm-184-4.73A71.66,71.66,0,0,0,11.64,6.77c0-1.22-.31-2-.87-2.06L10,5a2.29,2.29,0,0,0-.7,1.54c-.32,6.71-1,14.18-3.4,18.74C4.3,27.4,2.82,28.67,1.58,29v4A10,10,0,0,0,8.45,27.12Zm.05-26a2.08,2.08,0,0,0,1.77,1.4l.42,0h.11L15.9,0H8.59A1.44,1.44,0,0,0,8.5,1.12Zm129,20.82c.38.46,3.8.54,6.13-.63a2.19,2.19,0,0,0,1.23-1.1c.87-1.69.17-3.78-2.33-6.48-2.93-3.67-6.4-4.53-10.51-2.7a.85.85,0,0,0-.47,1.12,1.56,1.56,0,0,0,1.2.58c3.75-1.65,6.29-.33,8.8,4.07.71,2.35-.31,2.68-1.1,3.06a5.34,5.34,0,0,1-2.43.5,1.1,1.1,0,0,0-.95.94C137.05,21.43,137.14,21.67,137.51,21.94Zm129.66-1-.9.25a2.67,2.67,0,0,0-.92,1.87l-.49,3.49c-.27,1.76-.53,3.53-.78,5.29s-.52,3.39-.78,5.06a8.48,8.48,0,0,1-.15,1.42h3.11l1.81-15.71C268,21.67,267.66,21,267.17,21Zm-4.82-9.24h0a5.45,5.45,0,0,0-.57-.72A137.8,137.8,0,0,0,240.93,0H228.76a213.53,213.53,0,0,1,25.66,11.09c1.4.88,2,1.74,2,2.6a1.45,1.45,0,0,1-.89,1.22c-1.06.51-2.76.3-4.51-.51C238.34,7.89,224.74,3.47,211.88,0H199.31a3.81,3.81,0,0,0,1.14.91C211.07,3,224.14,8,235.68,12.39l.41.14c8.22,3.16,15.33,5.85,19.44,6.69a10.6,10.6,0,0,0,5.32-.92,4.55,4.55,0,0,0,2.72-3.12A3.72,3.72,0,0,0,263,12.5,6,6,0,0,0,262.35,11.72ZM25.63,35.57c-.73.31-.78.49-.35,1.38a2,2,0,0,0,1.6,1.38,5,5,0,0,0,2-.3l3.8-3.23.49-.8c0-.06-.08-.22-.54-.28-1.93-.44-3-2.32-3.95-4-.83-1.43-1.68-2.89-3-3.59L25,25.85a.86.86,0,0,0-.87.23c-.19.15-.13.4,0,.8a13.4,13.4,0,0,0,1.41,2.45C26.81,31.29,28.42,33.69,25.63,35.57ZM154.92.29a12,12,0,0,1-5.15.87l-.27.7a.86.86,0,0,0,.59.74l3.66.63c4.63-.75,7.15,1.18,7.9,3.08a2.89,2.89,0,0,1-1.21,3.81,5.78,5.78,0,0,1-3.74.15,3.39,3.39,0,0,0,1.24,1.53c4,2.34,8,2.33,10.08,1.27a2.54,2.54,0,0,0,1.61-2c.14-1.16-.68-2.44-2.35-3.74A24.45,24.45,0,0,1,159.91,0h-4.49ZM17.26,4.67a2.62,2.62,0,0,0-.91,1.86l-.5,3.5q-.4,2.64-.77,5.29c-.27,1.7-.53,3.39-.79,5.06a6.26,6.26,0,0,1-2.52,5.26l-.1.1a7.59,7.59,0,0,0-1.52,1.69c-.92,2.27-.71,2.88-.62,3l.18,0a2.12,2.12,0,0,0,.94-.11c4.13-2.64,6.27-5.35,6.6-8.55L19.07,6.09c0-1-.42-1.6-.91-1.68ZM185,3.21c.75-.37,1.41-1.11,1.15-1.23C183.15.46,167,.58,167,.58a3.59,3.59,0,0,0,1.28,1,78.35,78.35,0,0,0,15.78,1.86ZM151.69,38.29c2.22-3.91,2.71-7.62,1.57-11.06A6.3,6.3,0,0,0,150,23.49c-1.6-.61-3.72-.36-6.47.74l-.73.28c-1.13.57-1.56,1.46-1.43,2.07a1.25,1.25,0,0,0,1,.84l3.76-1a3.9,3.9,0,0,1,2.8.53c.81.63,1.67,2.89,1.55,4.82-.79,4-1.92,4.72-.37,6.3a1.54,1.54,0,0,0,.18.23h1.38ZM148,30.48c-1.17-1.77-2.1-1.29-2.48-1.11a6.62,6.62,0,0,0-1.35,1,1.41,1.41,0,0,0-.31,1.51,2,2,0,0,0,1.82.6A9.4,9.4,0,0,0,147,32C148.38,31.33,148.24,30.83,148,30.48Zm23.24-4.67a4.09,4.09,0,0,1-3,0c-.42-.2-.71-.25-.9-.15s-.28.15-.47.78c-.88,2.22,0,3,.87,3.36,3.39,1,5.77,1.18,7.27.45,1.14-.59,1.78-1.77,2-3.6a24.68,24.68,0,0,0-2.36-8.74,2,2,0,0,0-1-1.16,5.9,5.9,0,0,0-1.47.08l-.26,0-.75.08a45.88,45.88,0,0,1-8.68-.73l.08.36c.39,1.41,1,2.11,2,2.29l4.66.91a4.57,4.57,0,0,1,3.18,3.73A2.26,2.26,0,0,1,171.28,25.81ZM144.6,8.87,145.7,10c8.74,9.51,14.36,15.62,10,28.31h5.62a31.78,31.78,0,0,0,1-6.06C164.05,21.45,150,7.58,141.39,0h-6.77A53.41,53.41,0,0,1,144.6,8.87ZM24.73,5.27c.24-2-.82-2.18-1.24-2.24a7.4,7.4,0,0,0-1.76.07,1.65,1.65,0,0,0-1.25,1c-.08.48.35,1.05,1.06,1.48a9.13,9.13,0,0,0,1.39.32C24.44,6.14,24.66,5.67,24.73,5.27Zm3-2.32c.23.95-.59,3.22-2,4.7-3.29,2.76-4.66,2.7-4.48,4.82-.09.95.32,1,.53,1h.65c4.37-1.9,7.22-4.59,8.59-8,.63-2,.59-3.58-.16-4.8A4,4,0,0,0,30.25,0H23.06l2.77,1A3.44,3.44,0,0,1,27.72,3Zm7.9,28.89a2.69,2.69,0,0,0,1.71-.37A37.52,37.52,0,0,1,41,28.82c1.94-1.2,3.76-2.35,5-4.42.3-.9.26-1.24.19-1.34s-.25-.22-1.1-.35c-3.23-.66-5.12-2.81-7.1-5.08l-.66-.35a1.62,1.62,0,0,0-1.45.61A1.06,1.06,0,0,0,35.61,19l3.12,4.29a2.53,2.53,0,0,1-.42,2.7,3,3,0,0,1-2.62,1.08,2.18,2.18,0,0,1-1.3-.62l-3.31-3.31-.74-.28a1.24,1.24,0,0,0-1.16.53,1.14,1.14,0,0,0-.09,1.16A31,31,0,0,0,33.8,30.8,3.22,3.22,0,0,0,35.62,31.84Zm-13.95-9,.22,0c4.54-1.15,8.81-3.87,13-8.3C38.61,11.25,40.33,5.89,41,0H36.43c-.89,7.05-4.33,12.59-15,18.24a3.1,3.1,0,0,0-1.11,3.27A1.61,1.61,0,0,0,21.67,22.82ZM55.59,0H47.78a8.2,8.2,0,0,0,4.43,2.37,2.9,2.9,0,0,0,2.58-.67A2.86,2.86,0,0,0,55.59,0ZM319.2,33l-9-10-.46-.3-.43.16a2.45,2.45,0,0,0-.2,2.45c2.69,3.12,5.39,6.35,6.58,8.79a4,4,0,0,1-.25,4.19h5.44A5.46,5.46,0,0,0,319.2,33Zm77.31-20a7.33,7.33,0,0,1-2.12.7l-.31.2a2.13,2.13,0,0,0,.65.52,11.39,11.39,0,0,0,7.24-.56,2.94,2.94,0,0,0,1.93-2.41c0-1.54-1.75-3.42-4.8-5.2l-.55-.38-.12-.12-.1-.17c-.15-.26-.39-.88-4.22-1.64l-.22,0c.17.65-.25,1.35-1.2,2a16.46,16.46,0,0,1-2.12,1.27c-.8.39-1.78.81-3,1.28l-.3.42a2.28,2.28,0,0,0,2.22.56c5.37-2.48,8.19-1.78,9-.3C399.23,10.51,398.41,12.12,396.51,13.05Zm13.65,14.12a5.78,5.78,0,0,1-3.74.15,3.39,3.39,0,0,0,1.24,1.53c4,2.34,8,2.33,10.08,1.27a2.54,2.54,0,0,0,1.61-2c.13-1.16-.68-2.44-2.36-3.74a24.8,24.8,0,0,1-8.33-9c-.4-.69-.68-.83-1-.9a4.4,4.4,0,0,0-.9,1.1,6.84,6.84,0,0,1-2.13,1.7,11.94,11.94,0,0,1-5.14.87l-.28.7a.89.89,0,0,0,.6.74l3.65.63c4.64-.75,7.15,1.18,7.91,3.08A2.9,2.9,0,0,1,410.16,27.17ZM381.74,4.62l-.06,0-.47.42c2.36.55,5.2.22,8.66-1,1.09-.6,1.34-1,1.37-1.26a1.35,1.35,0,0,0-.48-.9A47.88,47.88,0,0,0,386.36,0H380.9l.92.32c1.34.57,2,1.2,2,2S383.19,3.9,381.74,4.62Zm-5.78-3a8.31,8.31,0,0,0-3,.94c-.84.44-1.73,1-2.35,1.38-.29.24-.33.4-.29.48s.43.43,1.41.42a11.3,11.3,0,0,0,3.64-1A5.41,5.41,0,0,0,377,2.61c.34-.53.27-.68.25-.71S377.07,1.64,376,1.59ZM359.59,4.24c1.25-.76,2.55-1.51,3.91-2.17A32,32,0,0,1,368.69,0h-5.9c-1.12.46-2.19,1-3.23,1.47s-2.44,1.27-3.67,2c-.45.3-.68.6-.62.7C355.6,4.7,357.81,5,359.59,4.24ZM424.4,35a2.06,2.06,0,0,0-.95-1.16,5.88,5.88,0,0,0-1.47.08l-.26,0L421,34a46,46,0,0,1-8.69-.73l.09.36c.39,1.41,1,2.11,2,2.29l4.65.91a5,5,0,0,1,2.23,1.53h4.49A32.5,32.5,0,0,0,424.4,35Zm-60.49-1.77a17.74,17.74,0,0,0-2.65-.22l.74,1.28a11.72,11.72,0,0,1,9.09,4.09h1.59C370.17,35,367.24,33.3,363.91,33.18Zm83.5,2.09a1.64,1.64,0,0,0-1.17.3,1.47,1.47,0,0,0-.61,1.13l-.3,1.64h3.28c.09-.48.19-1,.28-1.43A1.63,1.63,0,0,0,447.41,35.27Zm-52.82,2c.87-1.69.17-3.78-2.33-6.48-2.94-3.67-6.41-4.53-10.52-2.7a.84.84,0,0,0-.46,1.12,1.56,1.56,0,0,0,1.2.58c3.75-1.65,6.29-.33,8.8,4.07.71,2.35-.32,2.68-1.1,3.06a5.36,5.36,0,0,1-2.43.5,1.13,1.13,0,0,0-1,.93h6.6A2.2,2.2,0,0,0,394.59,37.26ZM341.7,10.61l-.31,0c-.65,1-.57,3.71.39,4.71,5,7.05,10.11,14.5,15,23h5.09a169.7,169.7,0,0,0-19.35-26.93C342.16,10.9,341.91,10.66,341.7,10.61ZM59.26,30.79a20.86,20.86,0,0,0-6.67-7.32,1,1,0,0,0-.84.48,2.29,2.29,0,0,0-.13,2.37l3.31,4.62a3.75,3.75,0,0,1-.81,4,4.14,4.14,0,0,1-3.63,1.64,3.09,3.09,0,0,1-1.74-.81L44.92,32.1l-.6-.43c-.38-.06-.87.29-1.17.86a1.69,1.69,0,0,0,0,1.91l4.06,3.9H57.38C59.55,36,60.87,34,59.26,30.79Zm328.38,3.69a.91.91,0,0,0,.51-.77c-.67-1.47-1.4-1.89-1.84-2a2.86,2.86,0,0,0-1.56.48c-.53.59-.81,1.05-.76,1.33s.51.72,1.12,1A4.59,4.59,0,0,0,387.64,34.48Zm-24.36-6a25,25,0,0,0-3.86-.3l.89,1.74c5.17.12,9.44,1.63,12.77,5.59A15.46,15.46,0,0,0,375,38.34h2.15C373.75,32,369.11,28.67,363.28,28.49ZM451.39,9.26l0,0a1.45,1.45,0,0,0-1.07.77c-.32.67,0,0-.91,2-5.77,19.21-2.1,20-2.1,20a4.21,4.21,0,0,0,2.51,1,6.81,6.81,0,0,0,1.6-.11V29a2.63,2.63,0,0,1-.67.07c-.71-.06-1.89-.52-1.88-3.14a66.13,66.13,0,0,1,2.55-13.58Zm-165.27-6a3.2,3.2,0,0,1,1.14,2.46,1.78,1.78,0,0,1-.92,1.15,9.65,9.65,0,0,1-4.64.59,54.29,54.29,0,0,1-18.38-4.5c-2-1-4-2-6-2.92h-9.51c8,3.56,13.3,4.67,19.86,8.53a7.24,7.24,0,0,1,.65.75C279,13.56,289,13,298.76,7.67c.93-.52,1.91-1.11,2.86-1.72,1.36-1.21,1.3-1.71,1.29-1.72-.06-.18-.52-.42-1.56-.54A32.1,32.1,0,0,1,289.63,0h-8.42C282.83,1.05,284.46,2.13,286.12,3.22ZM275.75,4.47a4.51,4.51,0,0,0,2.8-.23A.79.79,0,0,0,279,3.6c0-.71-1-1.73-2.67-2.75L274.86,0h-8.33C269.48,1.42,272.54,2.9,275.75,4.47ZM434.19,34.23a.94.94,0,0,0,.38-1.08,1.14,1.14,0,0,0-.92-.79l-4.87.24-.24.61.54.69,4.77.49ZM82,32.54c-1.81-2.82-3.68-5.8-5.44-8.45L76,23.7l-.8.45a3,3,0,0,0-.67,2.74l7.15,11.45h4.05C84.5,36.41,83.26,34.47,82,32.54ZM2.13,10.41a1.1,1.1,0,0,0-.55-1.13v3C1.76,11.6,2,11,2.13,10.41ZM350.41,0h-4.84a8.45,8.45,0,0,0-.58.73,8.49,8.49,0,0,0-1.14,2.1s-2.39,6.5,5.37,9.29c3,1.09,5.69.72,8.82.43,1.63-.14,2.88-.23,4-.26,2.25,0,4.55,0,6.82.18,8.79.34,15.49,2.57,25.42,13.45l1.11,1.16c3.79,4.12,7,7.61,9,11.26h5.1c-5.43-10.39-17.81-20.83-22.77-25a23.6,23.6,0,0,0-17-4.88L352,9.12A6.09,6.09,0,0,1,347.41,6c-.77-1.68.18-2.55,1.51-4.39A9.44,9.44,0,0,1,350.41,0ZM334.79,4.87a2.56,2.56,0,0,1,0,3.1,2.72,2.72,0,0,1-2.78.85,5.85,5.85,0,0,1-2.38-1.22A70.8,70.8,0,0,0,322.06,0h-3.52a134.2,134.2,0,0,1,12.63,12.44A6.06,6.06,0,0,0,334,14.27a3.5,3.5,0,0,0,3-.95c2.81-3.8,1.83-8.15-3-13.23l-.1-.09h-3.7A51.68,51.68,0,0,1,334.79,4.87Zm65.57-3.73-.35,0a10.29,10.29,0,0,0,4.09,1.14c10.52-.65,28.25-1,37,.8a2.51,2.51,0,0,1,2,2.16,2.24,2.24,0,0,1-1.53,2.11,5.94,5.94,0,0,1-2.56.43C429.41,6,415.42,6,409.2,6.53l-.09.44a2,2,0,0,0,2.16,1.14c7.56-.35,21.83.65,32,2.3a6.49,6.49,0,0,0,3.33-.26,2.89,2.89,0,0,0,1.61-2.28c-.35-4.2-3.89-6.74-10.77-7.7-1.63-.06-3.58-.12-5.71-.17H414.55A99.24,99.24,0,0,0,400.36,1.14ZM440.63,13.9c-8-2.11-17.41-2.86-29.53-2.39l-.19.48a2.3,2.3,0,0,0,2,1.53c2.17.21,5.2.29,8.72.36,6.8.14,13.81.29,16,1.67a5,5,0,0,1,2.78,4.21,2.86,2.86,0,0,1-1.62,2.6,5.06,5.06,0,0,1-2.28.45l-15.25-.36h-.34l-.1.11c.2.65,1.72,2.07,3.81,2.6a72.07,72.07,0,0,0,11.46,1h1.05c1.65,0,4.19.05,5.6-.63a3.5,3.5,0,0,0,1.47-1.4C445.41,20.29,443.25,15.27,440.63,13.9Zm1.61,23.31a8.9,8.9,0,0,0-.14-4.72,5.4,5.4,0,0,0-5.36-3.78l-10.82-.62-.42.08-.11.31a2.39,2.39,0,0,0,1.49,1.41,46.64,46.64,0,0,1,8.92,1.23,3.89,3.89,0,0,1,2.69,2.64,1.81,1.81,0,0,1-.68,2,2.67,2.67,0,0,1-1.76.34l-6.1.12a.83.83,0,0,0-.14.83,2.12,2.12,0,0,0,1,1.26h10.61A2.41,2.41,0,0,0,442.24,37.21ZM352.66,18.05l.75,1.31c2.83-.83,6.4-1.57,8.2-.21a3.51,3.51,0,0,0,2.31-.41c1.07-.54,1.48-1.17,1.47-1.29l-.43-.16C361.94,16,356.39,16.49,352.66,18.05Zm82,2.21c.75-.37,1.41-1.11,1.15-1.23-3-1.52-19.11-1.4-19.11-1.4a3.55,3.55,0,0,0,1.29,1,78.24,78.24,0,0,0,15.77,1.86ZM364.3,38.19l.26.15h2.29a19.13,19.13,0,0,0-3.2-1.28ZM89.1,5l-.41-.4-.43.33a4.87,4.87,0,0,0-.87,4.4c6.39,7.75,12.54,19,18,29.06h5.35C104.43,26,96.43,14.81,89.1,5ZM137,37.81l-.4.53h1.84C137.9,37.82,137.38,37.62,137,37.81Zm-19.11-11,2.63,4.55c2.78,2.49,4.4,4.76,5,6.93h4.24a6.32,6.32,0,0,0-.36-.67A40.48,40.48,0,0,0,117.89,26.86Zm142.9-4.76-.89.28a2.21,2.21,0,0,0-.86,1.53,72.46,72.46,0,0,1-2.89,14.43H259a79.06,79.06,0,0,0,2.6-14.06C261.7,23,261.39,22.18,260.79,22.1Zm10.73,8.46h.66c4.36-1.9,7.22-4.59,8.59-8,.63-2,.59-3.58-.16-4.8s-2.73-2.33-5.65-3l-.77-.18a2.45,2.45,0,0,0-2.51.86,1.11,1.11,0,0,0,.24,1.22l3.63,1.3a3.39,3.39,0,0,1,1.88,2c.23.95-.58,3.22-2,4.7-3.28,2.76-4.66,2.7-4.47,4.82C270.91,30.47,271.31,30.53,271.52,30.56Zm13.13,1.05c4.57-4.11,6.11-10.8,6.29-18.33l-4.56,1C286.16,22,284.05,27.4,275,33.05l-.81-.5.64.61c-1.14.7-2.38,1.41-3.74,2.13a3.1,3.1,0,0,0-1.16,3.05h5.86A31.45,31.45,0,0,0,284.65,31.61ZM60.65,7.33l-.46-.26-.4.18a2.4,2.4,0,0,0,0,2.38c2.83,2.81,5.69,5.74,7,8A3.94,3.94,0,0,1,66.76,22a2.74,2.74,0,0,1-2.59,1.24,3.37,3.37,0,0,1-2-1.08l-5.75-4.64a1.2,1.2,0,0,0-.93.61,2.06,2.06,0,0,0,0,2.35l6.95,6.58a4.86,4.86,0,0,0,2.36,1.18,3.79,3.79,0,0,0,2.09-.34,12.45,12.45,0,0,0,4.45-4.18c1.51-2.92,1.09-5.34-1.29-7.44ZM270.2,21.19c-.09.48.35,1,1.05,1.48a9.71,9.71,0,0,0,1.39.32c1.52.2,1.73-.27,1.81-.67.24-2.05-.82-2.18-1.24-2.24a7.37,7.37,0,0,0-1.76.07A1.63,1.63,0,0,0,270.2,21.19ZM70.73,30.45a1.4,1.4,0,0,0-1.25.48,1.82,1.82,0,0,0,.26,2c1.7,1.76,3.27,3.58,4.75,5.43h3.4c-1.78-2.28-3.79-4.74-6-7.35A2.45,2.45,0,0,0,70.73,30.45ZM63.94,33.3a3.34,3.34,0,0,0,.13,3l1.71,2.09h3.51A55.66,55.66,0,0,0,63.94,33.3Zm13-20.21c3.57-2.48,5.24-7.85,4.1-10.47C80.36,1.74,79.63.87,78.87,0H76a6.9,6.9,0,0,1,1.55,2.26,5,5,0,0,1-.65,5.05,3.27,3.27,0,0,1-3,1.22,4.73,4.73,0,0,1-2.1-.92L61.81,0H59.57a6.38,6.38,0,0,0,1.25,2.76,64.71,64.71,0,0,0,8.34,7.4l.84.58c1.29,1,3.27,2.43,4.84,2.67A3.73,3.73,0,0,0,76.94,13.09Zm6.91.93-.4.09a2.78,2.78,0,0,0-.46,2.5A217.3,217.3,0,0,1,97.61,38.34h4C97.15,30,91.18,22.39,84,14.19Zm6,24.32h3.69A153,153,0,0,0,79.25,17.9l-.33.26a2.27,2.27,0,0,0-.73,1.77C81.81,26.23,85.72,32.4,89.87,38.34ZM321.72,20l.89.36c.87.19,1.95,0,1.83-.23-1.15-3-13.8-13.09-13.8-13.09a3,3,0,0,0,.21,1.6A70.58,70.58,0,0,0,321.72,20Zm15.92-.57-.44.32a4.87,4.87,0,0,0-.93,4.38,118,118,0,0,1,9.37,14.22h5c-4.11-6.59-8.47-12.78-12.61-18.52Zm-5,9.4-.39.08a2.79,2.79,0,0,0-.5,2.5c1.65,2.3,3.29,4.61,4.9,6.94h3.71c-2.33-3.07-4.85-6.17-7.54-9.35Zm-36.56,2.55a3.74,3.74,0,0,1-2.38-1.64c-.2-.4-.4-.59-.61-.62,0,0-.32,0-.9.37-2.17,1.29-2,2.39-1.53,3.16,2,2.69,3.81,4.1,5.49,4.35,1.31.16,2.61-.44,4-1.79A25.53,25.53,0,0,0,304,26.94a1.85,1.85,0,0,0,0-1.46,5.85,5.85,0,0,0-1.22-.74l-.23-.11-.65-.35a41.22,41.22,0,0,1-6.44-5.36l-.17.34c-.62,1.33-.6,2.22.05,2.91l3.11,3.28a4.16,4.16,0,0,1,.07,4.72A2.62,2.62,0,0,1,296.08,31.37Zm77.1-10.17c-.32.31-.32.51-.32.55s.23.57,1.74,1.19a2.61,2.61,0,0,0,1.65.1c.42-.17.29-.71.13-1C376,21.17,374.83,20.59,373.18,21.2ZM307.9,29l-.88.3-.26,1,3.71,4.56.47.17a1.5,1.5,0,0,0,1.51-.55,1.22,1.22,0,0,0,0-1.45Zm70.56-4.64,0,0,.31.7a3.87,3.87,0,0,0,2.15-.32,2.61,2.61,0,0,0,1.51-1.89A3.31,3.31,0,0,0,381.07,20c-4.71-3.48-8.4-2.84-12.45-.83l-.53.26c-.47.4-.51.77-.45.87s.79.61,2.19-.05c2.26-1.13,4.94-2.47,8.94.37a2.23,2.23,0,0,1,1.18,2C379.89,23.41,379.66,23.78,378.46,24.35ZM355.64,22l1.38,2.4c7.27-.16,13.37,1.69,18.33,7.05,2.37,3.82,4.69,5.94,6.81,6.25l.49,0-.42-.9c-5.37-9.85-12.44-14.76-21.15-14.65A37.71,37.71,0,0,0,355.64,22ZM305,33.21a1.31,1.31,0,0,0-1,.56,2.12,2.12,0,0,0-.26,2.42l1.95,2.15h4.77ZM317.29,7.44c5.1,4.53,10.37,9.2,11,11.72a5.13,5.13,0,0,1-1.14,5.15,3.46,3.46,0,0,1-3.25,1,4.7,4.7,0,0,1-2.09-1.11L310.35,14l-.26-.22-.16,0c-.35.65-.28,2.77.9,4.54a65.64,65.64,0,0,0,8,8.27l.81.67c1.26,1.08,3.18,2.76,4.79,3.12a3.85,3.85,0,0,0,2.21-.16c3.93-2.27,6.16-7.68,5.21-10.46C327.59,13.3,321.45,7,312.66,0h-2.39a2.51,2.51,0,0,0,.6,1.5C312.37,3.08,314.64,5.11,317.29,7.44ZM300,14.08a5.34,5.34,0,0,1-3.08-1.94,3.19,3.19,0,0,0,0,1.91c1.67,4.08,4.81,6.23,7.2,6.54a2.9,2.9,0,0,0,2.58-.67c.88-.85,1.07-2.32.61-4.28a23.07,23.07,0,0,1-1.14-8.89,7.53,7.53,0,0,1-2.7,2.14,4.24,4.24,0,0,1,.05,2.81A3.31,3.31,0,0,1,300,14.08ZM327.65,32.9a2.21,2.21,0,0,0-.75,1.75c.68,1.24,1.38,2.47,2.08,3.69h3.36q-2.1-2.88-4.36-5.7Zm-40,1.78-.66-.35a1.62,1.62,0,0,0-1.45.61,1,1,0,0,0-.24,1.12L287,38.34h4.48A20.45,20.45,0,0,1,287.68,34.68Z" transform="translate(1.3)"/><path class="cls-2" d="M627.09,38.34h-5A3,3,0,0,0,621,37.16l-5.34-1.71a1.06,1.06,0,0,1-.54-1,1.38,1.38,0,0,1,.75-1.29l.76-.08c3.08.73,6,1.4,9,.15.77-.36,1-.38,1.11-.32s.39.29.74,1.17A9,9,0,0,1,627.09,38.34Zm-137-3.92-.46-.38c-.27,0-.63.2-1,.57a2.4,2.4,0,0,0-.38,2.44l.73,1.29h3.81A22.42,22.42,0,0,0,490.07,34.42ZM681,38.34a11.35,11.35,0,0,0-3.18-4.53c-3.15-2.43-12.39-5.6-25.35-8.72a2.61,2.61,0,0,0-1.25.18,1.19,1.19,0,0,0-.67,1.08,2,2,0,0,0,1.51,1.43A78.84,78.84,0,0,1,673.64,35a3.64,3.64,0,0,1,2.12,3.13c0,.07,0,.15,0,.22Zm5-3.47-1.17,3.47h2c.22-1,.42-2.13.61-3.26,0-.78-.18-1.2-.3-1.22S686.39,34.14,686,34.87Zm-38.32-3.59a3.77,3.77,0,0,0,2.06,2.28l17.94,4.78h3.24l.21-.24-.17-.48A65.61,65.61,0,0,0,647.69,31.28Zm-94.19-29c2.83-.83,6.4-1.57,8.2-.21A3.51,3.51,0,0,0,564,1.69c1.07-.53,1.48-1.17,1.47-1.29l-.43-.16a6.61,6.61,0,0,0-.67-.24H556a19.21,19.21,0,0,0-3.29,1Zm19.77,1.84c-.32.31-.32.51-.32.55s.23.57,1.74,1.19a2.61,2.61,0,0,0,1.65.1c.42-.17.29-.71.13-1C576.06,4.12,574.92,3.54,573.27,4.15Zm-3.35-.91c2.26-1.13,4.94-2.47,8.94.37a2.23,2.23,0,0,1,1.18,2c-.06.77-.29,1.14-1.49,1.71l0,0,.31.7A3.87,3.87,0,0,0,581,7.7a2.61,2.61,0,0,0,1.51-1.89A3.31,3.31,0,0,0,581.16,3c-4.71-3.48-8.4-2.84-12.45-.83l-.53.26c-.47.4-.51.77-.45.87S568.52,3.9,569.92,3.24Zm-14.73,2,1.39,2.39c7.26-.16,13.36,1.7,18.33,7.05,2.37,3.82,4.68,5.94,6.8,6.26l.49,0-.41-.9c-5.37-9.85-12.45-14.76-21.16-14.65A36.3,36.3,0,0,0,555.19,5.24Zm33,11.42c-.67-1.47-1.4-1.89-1.84-2a2.86,2.86,0,0,0-1.56.48c-.53.59-.81,1-.76,1.33s.51.72,1.12,1a4.59,4.59,0,0,0,2.53-.05A.93.93,0,0,0,588.24,16.66Zm104.65,15.4c-.21-.05-.8.29-1.19,1l-1.77,5.27h2.25c.38-1.58.71-3.26,1-5.06C693.22,32.5,693,32.09,692.89,32.06Zm-114.28-3c-4-3.81-11.67-8.25-14.87-9.08l.65,1.13a85.93,85.93,0,0,1,13.31,9.68C579.27,31.87,579.08,29.55,578.61,29.09Zm121.65-3a1.59,1.59,0,0,0-1.21.71c-.4.67-.77,1.34-1.13,2l-3.2,9.53h2.52a73,73,0,0,1,3.59-11C700.91,26.9,700.89,26.57,700.26,26.07ZM457.08,32.91l-.7-.54H456A5.68,5.68,0,0,0,455,36c.14.8.27,1.58.37,2.34h3.26Q458,35.78,457.08,32.91Zm-4.74,2.46a.9.9,0,0,0-.75.81c-.07.51-.14,1-.2,1.49v.67h1.53c0-.51.07-1,.11-1.54C453,35.74,452.57,35.39,452.34,35.37Zm2.35-27.95-2.43,16.32c0,.59.34.65.53.67s.64-.15.85-.75c1.7-4.11,2.5-9.44,2.43-16.26-.09-.76-.35-1.12-.46-1.13S454.92,6.66,454.69,7.42Zm13.9,20.92a1.6,1.6,0,0,0-.58-.53c-.07,0-.29.25-.49.94a11,11,0,0,0,.39,5l.08.17a12.72,12.72,0,0,1,.54,4.4h2.37A14.8,14.8,0,0,0,468.59,28.34Zm-5.39,7.35c0-.57,1.09-1.23,1.3-.84.29.64.66,1.19.94,1.09,1,.25,0-4.1,0-4.1a1.9,1.9,0,0,0-1.4-.66,4.28,4.28,0,0,0-2,.46c-.91.21-1.5.67-1.27,2.19a22,22,0,0,0,.51,4.51h2.42A10.68,10.68,0,0,1,463.2,35.69ZM640.79,3.44a2.81,2.81,0,0,1-1.61,2.63,4.82,4.82,0,0,1-2.28.42l-15.36-.7h-.34l-.1.1c.21.68,1.76,2.17,3.86,2.76A73.73,73.73,0,0,0,636.51,10h1c1.66.06,4.22.14,5.62-.53A3.25,3.25,0,0,0,644.65,8a10.59,10.59,0,0,0-1.25-8h-4.18A5.14,5.14,0,0,1,640.79,3.44Zm10,34.2-1.39-.4a1.2,1.2,0,0,0-.26.94s0,.11,0,.16h4.08ZM627.84,12.39l-.53,0-.2.37a2.61,2.61,0,0,0,1.58,1.88c4.12.69,8.34,1.45,10.91,2.51a4.34,4.34,0,0,1,2.84,3.52,2.35,2.35,0,0,1-1.25,2.41,3.55,3.55,0,0,1-2.27.22l-7.66-.54a1,1,0,0,0-.34,1,2.24,2.24,0,0,0,1.52,1.9l9.91,1.42a5.11,5.11,0,0,0,2.67-.35,3.3,3.3,0,0,0,1.43-1.41,10.82,10.82,0,0,0,.78-5.78,6.24,6.24,0,0,0-6-5.22Zm9,8.25a1.23,1.23,0,0,0,.7-1.28,1.3,1.3,0,0,0-1-1.06L630.36,18l-.41.73.54.89,5.87,1.14ZM648,12a2.23,2.23,0,0,0,.74,1.76,296.66,296.66,0,0,0,34.57,9.86l.67-.08.33-.49c0-.32-.24-.63-.64-.87a177.14,177.14,0,0,0-35.61-10.57Zm57.12,11.32c-.22,0-.77.36-1.08,1.11l-3.19,13.9h2.07a46.28,46.28,0,0,0,2.61-13.81C705.48,23.74,705.22,23.35,705.11,23.33ZM650.19,6.09l-.25,0-.24.3a3,3,0,0,0,1.44,2.18c12.33,3.11,24.49,6.39,37.52,12.35a3.84,3.84,0,0,1,2.6,3.26,4,4,0,0,1-2.34,3.57,5,5,0,0,1-3.35.33c-8-1.78-16-4.34-23.79-6.84C658.4,20.13,654.84,19,651.62,18l-.71,0-.3.82a3.18,3.18,0,0,0,1.45,2.48l25.35,8.34a26.24,26.24,0,0,0,11.15,1.72A18.59,18.59,0,0,0,692.4,30c2.33-1.14,3.62-2.59,3.88-4.22s-.73-3.67-2.8-5.56C680.38,12.47,666.71,9,650.19,6.09ZM635.73,36l-3.49-.57-.49.1a1.17,1.17,0,0,0-.66,1.13,1.25,1.25,0,0,0,1,1l3.53.55.8-.1c.43-.21.41-.73.41-.94A1.5,1.5,0,0,0,635.73,36ZM593,34.23c-.67-.74-1.4-1-1.84-.84l-.54.7a2.55,2.55,0,0,0,.5,2l1.43,2.26h3.18ZM521.17,3.54l.89.29c.84.11,1.86-.12,1.73-.36A15.13,15.13,0,0,0,520.45,0h-3.78C518.05,1.15,519.54,2.33,521.17,3.54Zm61,28.63a12.29,12.29,0,0,0-.71,2.31,1.46,1.46,0,0,0,.66,1.61,2.29,2.29,0,0,0,2.34.14l.37-.19.08-.07,3.49-7.12a2.34,2.34,0,0,0-.23-2,2.18,2.18,0,0,0-1.09-1c-3.82-.35-7.68-2.72-12.59-6.21a26.18,26.18,0,0,0-13.44-4.22l.77,1.32c6.93,1.81,12.9,4,19.41,10.74a4.83,4.83,0,0,1,1.21,4ZM511.66,18.72l.47.12a1.4,1.4,0,0,0,1.4-.63,1.17,1.17,0,0,0-.09-1.4l-4.73-3.58-.81.35-.16,1ZM546.29,0h-4a2,2,0,0,0,.31.42c7.94,10.85,16.18,22.65,23.38,37.92h4.25A80.6,80.6,0,0,0,565.73,28,160.09,160.09,0,0,0,546.29,0ZM504.13,8.43a5.85,5.85,0,0,0-1.22-.74l-.23-.11L502,7.23a41.22,41.22,0,0,1-6.44-5.36l-.17.34c-.62,1.33-.6,2.22.05,2.91l3.11,3.28a4.16,4.16,0,0,1,.07,4.72,2.62,2.62,0,0,1-2.48,1.2,3.74,3.74,0,0,1-2.38-1.64c-.2-.4-.4-.59-.61-.62-.05,0-.32,0-.9.37-2.17,1.29-2,2.39-1.53,3.16,2,2.69,3.81,4.1,5.49,4.35,1.31.16,2.61-.44,4-1.79a25.32,25.32,0,0,0,3.92-8.26A1.82,1.82,0,0,0,504.13,8.43Zm-5.9,19.48a1.37,1.37,0,0,0-1.27.54,1.11,1.11,0,0,0,.17,1.34l2.46,2.38.7.36a1.15,1.15,0,0,0,.95-.52,1.36,1.36,0,0,0-.14-1.53l-2.41-2.38Zm144.06,3.94a24.09,24.09,0,0,0-10.17-2.17.8.8,0,0,0-.35.84,2.5,2.5,0,0,0,1.47,2l5.7,1.86A4,4,0,0,1,641,38c0,.13,0,.24,0,.36h4.9C645.94,35.56,645.52,33.45,642.29,31.85Zm-184-4.73a72.07,72.07,0,0,0,3.2-20.35c0-1.22-.31-2-.87-2.06l-.8.33a2.21,2.21,0,0,0-.7,1.54c-.32,6.71-1,14.18-3.4,18.74-1.57,2.08-3.06,3.35-4.29,3.65v4A10,10,0,0,0,458.25,27.12Zm.05-26a2.08,2.08,0,0,0,1.77,1.4l.43,0h.1L465.7,0h-7.3A1.44,1.44,0,0,0,458.3,1.12Zm129,20.82c.38.46,3.8.54,6.13-.63a2.19,2.19,0,0,0,1.23-1.1c.87-1.69.17-3.78-2.33-6.48-2.94-3.67-6.41-4.53-10.52-2.7a.84.84,0,0,0-.46,1.12,1.56,1.56,0,0,0,1.2.58c3.75-1.65,6.29-.33,8.8,4.07.71,2.35-.32,2.68-1.1,3.06a5.36,5.36,0,0,1-2.43.5,1.13,1.13,0,0,0-1,.94C586.86,21.43,587,21.67,587.32,21.94ZM717,21l-.91.25a2.7,2.7,0,0,0-.91,1.87l-.49,3.49c-.28,1.76-.53,3.53-.78,5.29s-.53,3.39-.79,5.06a8.48,8.48,0,0,1-.15,1.42h3.12l1.81-15.71C717.84,21.67,717.46,21,717,21Zm-4.83-9.24h0a5.45,5.45,0,0,0-.57-.72A137.8,137.8,0,0,0,690.74,0H678.56a212.94,212.94,0,0,1,25.67,11.09c1.39.88,2,1.74,2,2.6a1.46,1.46,0,0,1-.89,1.22c-1.07.51-2.77.3-4.51-.51C688.14,7.89,674.54,3.47,661.69,0H649.12a3.81,3.81,0,0,0,1.14.91C660.88,3,674,8,685.49,12.39l.41.14c8.22,3.16,15.33,5.85,19.44,6.69a10.62,10.62,0,0,0,5.32-.92,4.51,4.51,0,0,0,2.71-3.12,3.71,3.71,0,0,0-.61-2.68A5.34,5.34,0,0,0,712.15,11.72ZM475.43,35.57c-.72.31-.77.49-.34,1.38a2,2,0,0,0,1.6,1.38,5,5,0,0,0,2-.3l3.8-3.23L483,34c-.05-.06-.09-.22-.54-.28-1.93-.44-3-2.32-4-4a9.07,9.07,0,0,0-2.94-3.59l-.76-.24a.86.86,0,0,0-.87.23c-.19.15-.13.4,0,.8a12.84,12.84,0,0,0,1.41,2.45C476.61,31.29,478.23,33.69,475.43,35.57ZM604.72.29a11.94,11.94,0,0,1-5.14.87l-.28.7a.89.89,0,0,0,.6.74l3.65.63c4.64-.75,7.15,1.18,7.91,3.08a2.9,2.9,0,0,1-1.21,3.81,5.78,5.78,0,0,1-3.74.15,3.39,3.39,0,0,0,1.24,1.53c4,2.34,8,2.33,10.08,1.27a2.54,2.54,0,0,0,1.61-2c.13-1.16-.68-2.44-2.36-3.74A24.52,24.52,0,0,1,609.72,0h-4.5C605.06.1,604.9.2,604.72.29ZM467.07,4.67a2.67,2.67,0,0,0-.92,1.86l-.49,3.5q-.41,2.64-.78,5.29c-.27,1.7-.52,3.39-.78,5.06a6.24,6.24,0,0,1-2.53,5.26l-.1.1A7.79,7.79,0,0,0,460,27.43c-.92,2.27-.71,2.88-.63,3l.18,0a2.18,2.18,0,0,0,.95-.11c4.13-2.64,6.27-5.35,6.6-8.55l1.81-15.73c0-1-.41-1.6-.9-1.68Zm167.7-1.46c.75-.37,1.41-1.11,1.15-1.23C633,.46,616.81.58,616.81.58a3.55,3.55,0,0,0,1.29,1,78.24,78.24,0,0,0,15.77,1.86ZM601.49,38.29c2.23-3.91,2.72-7.62,1.57-11.06a6.29,6.29,0,0,0-3.3-3.74c-1.61-.61-3.72-.36-6.47.74l-.74.28c-1.12.57-1.55,1.46-1.42,2.07a1.25,1.25,0,0,0,1,.84l3.76-1a3.91,3.91,0,0,1,2.8.53c.81.63,1.67,2.89,1.55,4.82-.79,4-1.93,4.72-.38,6.3l.18.23h1.38Zm-3.65-7.81c-1.17-1.77-2.1-1.29-2.47-1.11a6.36,6.36,0,0,0-1.35,1,1.39,1.39,0,0,0-.31,1.51,2,2,0,0,0,1.82.6,9.9,9.9,0,0,0,1.32-.5C598.19,31.33,598.05,30.83,597.84,30.48Zm23.25-4.67a4.12,4.12,0,0,1-3,0c-.42-.2-.71-.25-.89-.15s-.28.15-.47.78c-.88,2.22,0,3,.87,3.36,3.38,1,5.76,1.18,7.26.45,1.15-.59,1.79-1.77,2-3.6a24.64,24.64,0,0,0-2.35-8.74,2.06,2.06,0,0,0-1-1.16,5.88,5.88,0,0,0-1.47.08l-.26,0-.75.08a46,46,0,0,1-8.69-.73l.09.36c.39,1.41,1,2.11,2,2.29l4.65.91a4.57,4.57,0,0,1,3.19,3.73A2.26,2.26,0,0,1,621.09,25.81ZM594.4,8.87,595.51,10c8.74,9.51,14.36,15.62,10,28.31h5.62a32.62,32.62,0,0,0,1-6.06C613.85,21.45,599.81,7.58,591.2,0h-6.77A53.39,53.39,0,0,1,594.4,8.87ZM474.54,5.27c.24-2-.82-2.18-1.24-2.24a7.37,7.37,0,0,0-1.76.07,1.63,1.63,0,0,0-1.25,1c-.09.48.35,1.05,1,1.48a9.71,9.71,0,0,0,1.39.32C474.25,6.14,474.46,5.67,474.54,5.27Zm3-2.32c.23.95-.58,3.22-2,4.7-3.28,2.76-4.66,2.7-4.47,4.82-.09.95.31,1,.52,1h.66c4.36-1.9,7.22-4.59,8.59-8,.63-2,.59-3.58-.16-4.8a4,4,0,0,0-.64-.75h-7.2l2.78,1A3.39,3.39,0,0,1,477.52,3Zm7.91,28.89a2.71,2.71,0,0,0,1.71-.37,36.34,36.34,0,0,1,3.65-2.65c1.94-1.2,3.76-2.35,5-4.42.31-.9.27-1.24.19-1.34s-.25-.22-1.09-.35c-3.23-.66-5.12-2.81-7.1-5.08l-.66-.35a1.62,1.62,0,0,0-1.45.61,1,1,0,0,0-.24,1.12l3.11,4.29a2.51,2.51,0,0,1-.41,2.7,3,3,0,0,1-2.63,1.08,2.16,2.16,0,0,1-1.29-.62l-3.31-3.31-.75-.28a1.25,1.25,0,0,0-1.16.53,1.14,1.14,0,0,0-.08,1.16,30.62,30.62,0,0,0,4.71,6.24A3.22,3.22,0,0,0,485.43,31.84Zm-13.95-9,.21,0c4.55-1.15,8.82-3.87,13.05-8.3,3.68-3.31,5.4-8.67,6-14.56h-4.53c-.89,7.05-4.33,12.59-15.05,18.24a3.1,3.1,0,0,0-1.11,3.27A1.61,1.61,0,0,0,471.48,22.82ZM505.4,0h-7.81A8.2,8.2,0,0,0,502,2.37a2.91,2.91,0,0,0,2.58-.67A2.86,2.86,0,0,0,505.4,0ZM769,33l-9-10-.45-.3-.43.16a2.47,2.47,0,0,0-.21,2.45c2.69,3.12,5.39,6.35,6.59,8.79a4,4,0,0,1-.25,4.19h5.44A5.46,5.46,0,0,0,769,33Zm77.31-20a7.18,7.18,0,0,1-2.11.7l-.31.2a2.13,2.13,0,0,0,.65.52,11.4,11.4,0,0,0,7.24-.56,3,3,0,0,0,1.93-2.41c0-1.54-1.76-3.42-4.81-5.2l-.54-.38-.12-.12-.1-.17c-.15-.26-.39-.88-4.22-1.64l-.22,0c.16.65-.26,1.35-1.21,2a15.64,15.64,0,0,1-2.11,1.27c-.8.39-1.79.81-3,1.28L837.1,9a2.3,2.3,0,0,0,2.23.56c5.37-2.48,8.19-1.78,9-.3C849,10.51,848.21,12.12,846.31,13.05ZM860,27.17a5.8,5.8,0,0,1-3.75.15,3.54,3.54,0,0,0,1.24,1.53c4,2.34,8,2.33,10.08,1.27a2.53,2.53,0,0,0,1.62-2c.13-1.16-.69-2.44-2.36-3.74a24.84,24.84,0,0,1-8.34-9c-.39-.69-.67-.83-1-.9a4.19,4.19,0,0,0-.9,1.1,6.84,6.84,0,0,1-2.13,1.7,11.94,11.94,0,0,1-5.14.87l-.28.7a.88.88,0,0,0,.6.74l3.65.63c4.64-.75,7.15,1.18,7.9,3.08A2.89,2.89,0,0,1,860,27.17ZM831.55,4.62l-.07,0-.46.42c2.36.55,5.2.22,8.66-1,1.09-.6,1.34-1,1.37-1.26a1.39,1.39,0,0,0-.48-.9A47.88,47.88,0,0,0,836.17,0h-5.46l.92.32c1.34.57,2,1.2,2,2S833,3.9,831.55,4.62Zm-5.79-3a8.32,8.32,0,0,0-3,.94c-.84.44-1.73,1-2.36,1.38-.29.24-.32.4-.28.48s.43.43,1.41.42a11.3,11.3,0,0,0,3.64-1,5.24,5.24,0,0,0,1.62-1.16c.35-.53.28-.68.26-.71S826.88,1.64,825.76,1.59ZM809.4,4.24c1.25-.76,2.55-1.51,3.91-2.17A31.67,31.67,0,0,1,818.5,0h-5.9c-1.12.46-2.2,1-3.23,1.47s-2.44,1.27-3.67,2c-.46.3-.69.6-.63.7C805.41,4.7,807.61,5,809.4,4.24ZM874.21,35a2,2,0,0,0-1-1.16,5.82,5.82,0,0,0-1.46.08l-.26,0-.75.08a46,46,0,0,1-8.69-.73l.08.36c.4,1.41,1,2.11,2,2.29l4.65.91A5.07,5.07,0,0,1,871,38.34h4.49A32.5,32.5,0,0,0,874.21,35Zm-60.5-1.77a17.6,17.6,0,0,0-2.64-.22l.74,1.28a11.7,11.7,0,0,1,9.08,4.09h1.6C820,35,817.05,33.3,813.71,33.18Zm83.51,2.09a1.67,1.67,0,0,0-1.18.3,1.46,1.46,0,0,0-.6,1.13c-.1.54-.2,1.09-.31,1.64h3.29c.09-.48.18-1,.28-1.43A1.63,1.63,0,0,0,897.22,35.27Zm-52.83,2c.87-1.69.18-3.78-2.32-6.48-2.94-3.67-6.41-4.53-10.52-2.7a.84.84,0,0,0-.46,1.12,1.54,1.54,0,0,0,1.2.58c3.75-1.65,6.29-.33,8.79,4.07.71,2.35-.31,2.68-1.1,3.06a5.34,5.34,0,0,1-2.43.5,1.13,1.13,0,0,0-.95.93h6.6A2.17,2.17,0,0,0,844.39,37.26ZM791.51,10.61l-.32,0c-.65,1-.56,3.71.39,4.71,5,7.05,10.12,14.5,15,23h5.09A169.7,169.7,0,0,0,792.3,11.41C792,10.9,791.72,10.66,791.51,10.61ZM509.06,30.79a20.86,20.86,0,0,0-6.67-7.32,1,1,0,0,0-.83.48,2.27,2.27,0,0,0-.13,2.37l3.31,4.62a3.75,3.75,0,0,1-.81,4,4.14,4.14,0,0,1-3.63,1.64,3.09,3.09,0,0,1-1.74-.81l-3.84-3.67-.59-.43c-.39-.06-.87.29-1.17.86a1.65,1.65,0,0,0,0,1.91l4.06,3.9h10.13C509.36,36,510.68,34,509.06,30.79Zm328.39,3.69a.93.93,0,0,0,.51-.77c-.68-1.47-1.4-1.89-1.85-2a2.88,2.88,0,0,0-1.56.48c-.52.59-.81,1.05-.75,1.33s.51.72,1.12,1A4.61,4.61,0,0,0,837.45,34.48Zm-24.36-6a25.11,25.11,0,0,0-3.86-.3l.89,1.74c5.17.12,9.44,1.63,12.76,5.59a16,16,0,0,0,1.92,2.82H827C823.55,32,818.92,28.67,813.09,28.49Zm88.1-19.23,0,0a1.47,1.47,0,0,0-1.07.77c-.32.67,0,0-.91,2-5.76,19.21-2.09,20-2.09,20a4.19,4.19,0,0,0,2.51,1,6.73,6.73,0,0,0,1.59-.11V29a2.56,2.56,0,0,1-.66.07c-.71-.06-1.9-.52-1.89-3.14a67.5,67.5,0,0,1,2.55-13.58Zm-165.27-6a3.21,3.21,0,0,1,1.15,2.46,1.81,1.81,0,0,1-.92,1.15,9.67,9.67,0,0,1-4.64.59,54.4,54.4,0,0,1-18.39-4.5c-2-1-4-2-6-2.92h-9.5c8,3.56,13.29,4.67,19.86,8.53a6.09,6.09,0,0,1,.64.75c10.69,4.28,20.64,3.76,30.41-1.61.93-.52,1.91-1.11,2.85-1.72,1.37-1.21,1.3-1.71,1.3-1.72-.06-.18-.52-.42-1.56-.54A32.1,32.1,0,0,1,739.44,0H731ZM725.55,4.47a4.49,4.49,0,0,0,2.8-.23.83.83,0,0,0,.5-.64c0-.71-1-1.73-2.67-2.75L724.66,0h-8.32C719.28,1.42,722.34,2.9,725.55,4.47ZM884,34.23a.93.93,0,0,0,.39-1.08,1.15,1.15,0,0,0-.93-.79l-4.87.24-.23.61.54.69,4.77.49ZM531.85,32.54c-1.81-2.82-3.69-5.8-5.44-8.45l-.57-.39-.8.45a3,3,0,0,0-.67,2.74l7.15,11.45h4.05C534.31,36.41,533.07,34.47,531.85,32.54ZM451.93,10.41a1.09,1.09,0,0,0-.54-1.13v3C451.57,11.6,451.75,11,451.93,10.41ZM800.22,0h-4.84c-.2.23-.4.47-.59.73a8.78,8.78,0,0,0-1.13,2.1s-2.39,6.5,5.37,9.29c3,1.09,5.69.72,8.82.43,1.62-.14,2.87-.23,4-.26,2.25,0,4.56,0,6.83.18,8.78.34,15.48,2.57,25.42,13.45l1.1,1.16c3.79,4.12,7,7.61,9,11.26h5.1c-5.44-10.39-17.81-20.83-22.77-25a23.6,23.6,0,0,0-17-4.88l-17.76.64A6.13,6.13,0,0,1,797.21,6c-.76-1.68.18-2.55,1.52-4.39A9.44,9.44,0,0,1,800.22,0ZM784.6,4.87a2.56,2.56,0,0,1,0,3.1,2.75,2.75,0,0,1-2.79.85,5.82,5.82,0,0,1-2.37-1.22A70.8,70.8,0,0,0,771.87,0h-3.52A135.41,135.41,0,0,1,781,12.44a6,6,0,0,0,2.87,1.83,3.48,3.48,0,0,0,3-.95c2.82-3.8,1.84-8.15-3-13.23l-.1-.09H780A51.81,51.81,0,0,1,784.6,4.87Zm65.57-3.73-.35,0a10.29,10.29,0,0,0,4.08,1.14c10.53-.65,28.26-1,37,.8a2.53,2.53,0,0,1,2,2.16,2.26,2.26,0,0,1-1.53,2.11,5.94,5.94,0,0,1-2.56.43C879.22,6,865.23,6,859,6.53l-.08.44a2,2,0,0,0,2.16,1.14c7.56-.35,21.83.65,32,2.3a6.49,6.49,0,0,0,3.33-.26A2.91,2.91,0,0,0,898,7.87c-.35-4.2-3.89-6.74-10.77-7.7C885.6.11,883.65.05,881.52,0H864.36A99.24,99.24,0,0,0,850.17,1.14ZM890.44,13.9c-8-2.11-17.42-2.86-29.54-2.39l-.18.48a2.3,2.3,0,0,0,2,1.53c2.17.21,5.2.29,8.72.36,6.8.14,13.81.29,16,1.67a5,5,0,0,1,2.77,4.21,2.83,2.83,0,0,1-1.61,2.6,5.06,5.06,0,0,1-2.28.45l-15.25-.36h-.34l-.1.11c.2.65,1.72,2.07,3.8,2.6a72.29,72.29,0,0,0,11.47,1h1c1.65,0,4.19.05,5.59-.63a3.44,3.44,0,0,0,1.47-1.4C895.22,20.29,893.05,15.27,890.44,13.9Zm1.61,23.31a8.9,8.9,0,0,0-.14-4.72,5.42,5.42,0,0,0-5.36-3.78l-10.82-.62-.42.08-.11.31a2.36,2.36,0,0,0,1.49,1.41,46.53,46.53,0,0,1,8.91,1.23,3.87,3.87,0,0,1,2.69,2.64,1.81,1.81,0,0,1-.67,2,2.67,2.67,0,0,1-1.76.34l-6.11.12a.81.81,0,0,0-.13.83,2.12,2.12,0,0,0,1,1.26h10.61A2.48,2.48,0,0,0,892.05,37.21ZM802.46,18.05l.76,1.31c2.83-.83,6.4-1.57,8.2-.21a3.47,3.47,0,0,0,2.3-.41c1.08-.54,1.49-1.17,1.48-1.29l-.43-.16C811.75,16,806.2,16.49,802.46,18.05Zm82,2.21c.75-.37,1.41-1.11,1.14-1.23-3-1.52-19.1-1.4-19.1-1.4a3.59,3.59,0,0,0,1.28,1,78.35,78.35,0,0,0,15.78,1.86ZM814.11,38.19l.25.15h2.3a19.18,19.18,0,0,0-3.21-1.28ZM538.91,5l-.41-.4-.43.33a4.87,4.87,0,0,0-.87,4.4c6.38,7.75,12.54,19,18,29.06h5.35C554.24,26,546.24,14.81,538.91,5Zm47.9,32.86-.4.53h1.83C587.71,37.82,587.19,37.62,586.81,37.81Zm-19.11-11,2.63,4.55c2.77,2.49,4.4,4.76,5,6.93h4.24a6.32,6.32,0,0,0-.36-.67A40.48,40.48,0,0,0,567.7,26.86ZM710.6,22.1l-.89.28a2.26,2.26,0,0,0-.87,1.53A72.46,72.46,0,0,1,706,38.34h2.83a78.17,78.17,0,0,0,2.6-14.06C711.51,23,711.2,22.18,710.6,22.1Zm10.73,8.46H722c4.37-1.9,7.22-4.59,8.59-8,.64-2,.6-3.58-.16-4.8s-2.72-2.33-5.64-3l-.77-.18a2.44,2.44,0,0,0-2.51.86,1.09,1.09,0,0,0,.23,1.22l3.64,1.3a3.42,3.42,0,0,1,1.88,2c.23.95-.58,3.22-2,4.7-3.28,2.76-4.66,2.7-4.48,4.82C720.72,30.47,721.12,30.53,721.33,30.56Zm13.13,1.05c4.57-4.11,6.11-10.8,6.29-18.33l-4.57,1C736,22,733.86,27.4,724.82,33.05l-.81-.5.64.61c-1.14.7-2.38,1.41-3.74,2.13a3.08,3.08,0,0,0-1.16,3.05h5.85A31.48,31.48,0,0,0,734.46,31.61Zm-224-24.28L510,7.07l-.41.18a2.43,2.43,0,0,0,0,2.38c2.84,2.81,5.69,5.74,7,8a3.94,3.94,0,0,1-.07,4.36A2.74,2.74,0,0,1,514,23.23a3.37,3.37,0,0,1-2-1.08l-5.75-4.64a1.2,1.2,0,0,0-.93.61,2.06,2.06,0,0,0,0,2.35l6.95,6.58a4.86,4.86,0,0,0,2.36,1.18,3.81,3.81,0,0,0,2.09-.34,12.45,12.45,0,0,0,4.45-4.18c1.5-2.92,1.09-5.34-1.29-7.44ZM720,21.19c-.09.48.35,1,1,1.48a9.41,9.41,0,0,0,1.39.32c1.51.2,1.73-.27,1.8-.67.24-2.05-.82-2.18-1.23-2.24a7.37,7.37,0,0,0-1.76.07C720.58,20.35,720.09,20.74,720,21.19ZM520.54,30.45a1.38,1.38,0,0,0-1.25.48,1.8,1.8,0,0,0,.25,2c1.7,1.76,3.28,3.58,4.75,5.43h3.41c-1.78-2.28-3.8-4.74-6.05-7.35A2.38,2.38,0,0,0,520.54,30.45Zm-6.8,2.85a3.37,3.37,0,0,0,.14,3l1.7,2.09h3.52A54.63,54.63,0,0,0,513.74,33.3Zm13-20.21c3.56-2.48,5.24-7.85,4.1-10.47-.68-.88-1.41-1.75-2.17-2.62h-2.87a7.06,7.06,0,0,1,1.55,2.26,5,5,0,0,1-.65,5.05,3.28,3.28,0,0,1-3,1.22,4.78,4.78,0,0,1-2.1-.92L511.62,0h-2.24a6.38,6.38,0,0,0,1.25,2.76,64.71,64.71,0,0,0,8.34,7.4l.84.58c1.28,1,3.27,2.43,4.83,2.67A3.75,3.75,0,0,0,526.75,13.09Zm6.9.93-.39.09a2.78,2.78,0,0,0-.46,2.5,217.3,217.3,0,0,1,14.62,21.73h4C547,30,541,22.39,533.83,14.19Zm6,24.32h3.69A151.2,151.2,0,0,0,529.05,17.9l-.32.26a2.24,2.24,0,0,0-.73,1.77C531.62,26.23,535.53,32.4,539.67,38.34ZM771.52,20l.9.36c.87.19,2,0,1.83-.23C773.1,17.09,760.44,7,760.44,7a3.11,3.11,0,0,0,.22,1.6A70.9,70.9,0,0,0,771.52,20Zm15.93-.57-.44.32a4.88,4.88,0,0,0-.94,4.38,116.84,116.84,0,0,1,9.38,14.22h5c-4.12-6.59-8.47-12.78-12.61-18.52Zm-5,9.4-.4.08a2.79,2.79,0,0,0-.5,2.5c1.66,2.3,3.29,4.61,4.91,6.94h3.71c-2.33-3.07-4.85-6.17-7.55-9.35Zm-36.56,2.55a3.74,3.74,0,0,1-2.38-1.64c-.2-.4-.4-.59-.61-.62-.06,0-.32,0-.9.37-2.17,1.29-2,2.39-1.53,3.16,2,2.69,3.81,4.1,5.49,4.35,1.3.16,2.6-.44,4-1.79a25.52,25.52,0,0,0,3.92-8.26,1.82,1.82,0,0,0,0-1.46,5.85,5.85,0,0,0-1.22-.74l-.23-.11-.65-.35a40.32,40.32,0,0,1-6.44-5.36l-.17.34c-.62,1.33-.61,2.22.05,2.91l3.11,3.28a4.14,4.14,0,0,1,.06,4.72A2.6,2.6,0,0,1,745.89,31.37ZM823,21.2c-.32.31-.33.51-.33.55s.23.57,1.75,1.19a2.58,2.58,0,0,0,1.64.1c.43-.17.3-.71.14-1C825.78,21.17,824.64,20.59,823,21.2ZM757.7,29l-.87.3-.26,1,3.7,4.56.47.17a1.51,1.51,0,0,0,1.52-.55,1.2,1.2,0,0,0,0-1.45Zm70.57-4.64-.06,0,.31.7a3.89,3.89,0,0,0,2.16-.32,2.6,2.6,0,0,0,1.5-1.89A3.25,3.25,0,0,0,830.87,20c-4.71-3.48-8.39-2.84-12.44-.83l-.54.26c-.46.4-.5.77-.44.87s.78.61,2.19-.05c2.25-1.13,4.93-2.47,8.94.37,1.09.79,1.2,1.49,1.17,2C829.7,23.41,829.46,23.78,828.27,24.35ZM805.45,22l1.38,2.4c7.26-.16,13.37,1.69,18.33,7.05,2.37,3.82,4.68,5.94,6.8,6.25l.49,0-.41-.9c-5.37-9.85-12.45-14.76-21.15-14.65A37.71,37.71,0,0,0,805.45,22ZM754.78,33.21a1.31,1.31,0,0,0-1,.56,2.12,2.12,0,0,0-.26,2.42l2,2.15h4.77ZM767.09,7.44c5.11,4.53,10.37,9.2,11,11.72a5.13,5.13,0,0,1-1.14,5.15,3.46,3.46,0,0,1-3.25,1,4.78,4.78,0,0,1-2.1-1.11L760.16,14l-.27-.22-.15,0c-.36.65-.29,2.77.9,4.54a65.64,65.64,0,0,0,8,8.27l.81.67c1.25,1.08,3.18,2.76,4.79,3.12a3.85,3.85,0,0,0,2.21-.16c3.93-2.27,6.16-7.68,5.21-10.46C777.4,13.3,771.26,7,762.46,0h-2.38a2.5,2.5,0,0,0,.59,1.5C762.18,3.08,764.44,5.11,767.09,7.44Zm-17.3,6.64a5.31,5.31,0,0,1-3.08-1.94,3.19,3.19,0,0,0,0,1.91c1.67,4.08,4.8,6.23,7.19,6.54a2.92,2.92,0,0,0,2.59-.67c.88-.85,1.07-2.32.6-4.28a23.23,23.23,0,0,1-1.13-8.89,7.6,7.6,0,0,1-2.71,2.14,4.19,4.19,0,0,1,.06,2.81A3.33,3.33,0,0,1,749.79,14.08ZM777.46,32.9a2.21,2.21,0,0,0-.75,1.75c.68,1.24,1.37,2.47,2.08,3.69h3.36c-1.41-1.92-2.85-3.82-4.36-5.7Zm-40,1.78-.67-.35a1.6,1.6,0,0,0-1.44.61,1.06,1.06,0,0,0-.25,1.12l1.66,2.28h4.49A20.45,20.45,0,0,1,737.49,34.68Z" transform="translate(1.3)"/><path class="cls-2" d="M1076.9,38.34h-5a2.92,2.92,0,0,0-1.16-1.18l-5.34-1.71a1.06,1.06,0,0,1-.54-1,1.39,1.39,0,0,1,.74-1.29l.76-.08c3.09.73,6,1.4,9,.15.76-.36.95-.38,1.11-.32s.39.29.74,1.17A9.21,9.21,0,0,1,1076.9,38.34Zm-137-3.92-.46-.38c-.26,0-.62.2-.95.57a2.43,2.43,0,0,0-.39,2.44l.73,1.29h3.82A21.87,21.87,0,0,0,939.87,34.42Zm190.92,3.92a11.31,11.31,0,0,0-3.17-4.53c-3.15-2.43-12.39-5.6-25.35-8.72a2.61,2.61,0,0,0-1.25.18,1.17,1.17,0,0,0-.67,1.08,2,2,0,0,0,1.51,1.43A78.77,78.77,0,0,1,1123.44,35a3.62,3.62,0,0,1,2.12,3.13,1.64,1.64,0,0,1,0,.22Zm5-3.47-1.17,3.47h2c.22-1,.42-2.13.6-3.26,0-.78-.18-1.2-.29-1.22S1136.2,34.14,1135.81,34.87Zm-38.31-3.59a3.74,3.74,0,0,0,2.06,2.28l17.94,4.78h3.24l.21-.24-.18-.48A65.5,65.5,0,0,0,1097.5,31.28Zm-94.19-29c2.83-.83,6.4-1.57,8.2-.21a3.47,3.47,0,0,0,2.3-.41c1.08-.53,1.49-1.17,1.48-1.29l-.43-.16a6,6,0,0,0-.68-.24h-8.33a19.6,19.6,0,0,0-3.3,1Zm19.77,1.84c-.32.31-.33.51-.33.55s.23.57,1.75,1.19a2.61,2.61,0,0,0,1.65.1c.42-.17.29-.71.13-1C1025.87,4.12,1024.73,3.54,1023.08,4.15Zm-3.35-.91c2.25-1.13,4.93-2.47,8.94.37,1.09.79,1.2,1.49,1.17,2,0,.77-.29,1.14-1.48,1.71l-.06,0,.31.7a3.89,3.89,0,0,0,2.16-.32,2.6,2.6,0,0,0,1.5-1.89A3.25,3.25,0,0,0,1031,3c-4.71-3.48-8.39-2.84-12.44-.83l-.54.26c-.46.4-.5.77-.44.87S1018.32,3.9,1019.73,3.24Zm-14.73,2,1.38,2.39c7.27-.16,13.37,1.7,18.33,7.05,2.37,3.82,4.69,5.94,6.81,6.26l.49,0-.41-.9c-5.37-9.85-12.45-14.76-21.16-14.65A36.4,36.4,0,0,0,1005,5.24Zm33,11.42c-.68-1.47-1.4-1.89-1.85-2a2.88,2.88,0,0,0-1.56.48c-.52.59-.81,1-.75,1.33s.51.72,1.12,1a4.61,4.61,0,0,0,2.53-.05A.93.93,0,0,0,1038.05,16.66Zm104.65,15.4c-.21-.05-.81.29-1.19,1l-1.78,5.27H1142c.38-1.58.72-3.26,1-5.06C1143,32.5,1142.81,32.09,1142.7,32.06Zm-114.28-3c-4-3.81-11.68-8.25-14.88-9.08l.66,1.13a86.89,86.89,0,0,1,13.31,9.68C1029.08,31.87,1028.89,29.55,1028.42,29.09Zm121.65-3a1.61,1.61,0,0,0-1.22.71c-.39.67-.77,1.34-1.13,2l-3.19,9.53H1147a74.1,74.1,0,0,1,3.6-11C1150.71,26.9,1150.7,26.57,1150.07,26.07ZM906.88,32.91l-.69-.54h-.4a5.68,5.68,0,0,0-.94,3.63c.14.8.26,1.58.37,2.34h3.26Q907.85,35.78,906.88,32.91Zm-4.74,2.46a.9.9,0,0,0-.74.81c-.08.51-.14,1-.21,1.49v.67h1.54c0-.51.07-1,.11-1.54C902.75,35.74,902.38,35.39,902.14,35.37Zm2.35-27.95-2.42,16.32c0,.59.34.65.52.67s.65-.15.85-.75c1.71-4.11,2.5-9.44,2.43-16.26-.08-.76-.35-1.12-.45-1.13S904.73,6.66,904.49,7.42Zm13.9,20.92a1.54,1.54,0,0,0-.57-.53c-.08,0-.3.25-.49.94a11,11,0,0,0,.39,5l.08.17a12.72,12.72,0,0,1,.54,4.4h2.37A14.81,14.81,0,0,0,918.39,28.34ZM913,35.69c0-.57,1.09-1.23,1.29-.84.3.64.67,1.19,1,1.09,1,.25,0-4.1,0-4.1a1.91,1.91,0,0,0-1.4-.66,4.26,4.26,0,0,0-2,.46c-.91.21-1.5.67-1.27,2.19a21.35,21.35,0,0,0,.51,4.51h2.42A10.68,10.68,0,0,1,913,35.69ZM1090.59,3.44a2.81,2.81,0,0,1-1.6,2.63,4.82,4.82,0,0,1-2.28.42l-15.36-.7H1071l-.1.1c.21.68,1.75,2.17,3.85,2.76A74,74,0,0,0,1086.31,10h1.06c1.66.06,4.22.14,5.62-.53A3.3,3.3,0,0,0,1094.46,8a10.63,10.63,0,0,0-1.25-8H1089A5.12,5.12,0,0,1,1090.59,3.44Zm10,34.2-1.39-.4a1.2,1.2,0,0,0-.25.94s0,.11,0,.16H1103Zm-22.9-25.25-.54,0-.2.37a2.63,2.63,0,0,0,1.59,1.88c4.12.69,8.34,1.45,10.91,2.51a4.36,4.36,0,0,1,2.84,3.52,2.36,2.36,0,0,1-1.25,2.41,3.57,3.57,0,0,1-2.28.22l-7.66-.54a1,1,0,0,0-.33,1,2.23,2.23,0,0,0,1.52,1.9l9.91,1.42a5.06,5.06,0,0,0,2.66-.35,3.32,3.32,0,0,0,1.44-1.41,10.91,10.91,0,0,0,.78-5.78,6.24,6.24,0,0,0-6-5.22Zm9,8.25a1.23,1.23,0,0,0,.7-1.28,1.31,1.31,0,0,0-1-1.06l-6.15-.26-.41.73.54.89,5.87,1.14ZM1097.8,12a2.26,2.26,0,0,0,.73,1.76,297.37,297.37,0,0,0,34.58,9.86l.67-.08.33-.49c0-.32-.25-.63-.64-.87a177.23,177.23,0,0,0-35.62-10.57Zm57.11,11.32c-.21,0-.77.36-1.08,1.11l-3.18,13.9h2.07a46.28,46.28,0,0,0,2.61-13.81C1155.29,23.74,1155,23.35,1154.91,23.33ZM1100,6.09l-.26,0-.23.3A3,3,0,0,0,1101,8.54c12.33,3.11,24.49,6.39,37.52,12.35a3.85,3.85,0,0,1,2.6,3.26,4,4,0,0,1-2.34,3.57,5,5,0,0,1-3.35.33c-8-1.78-16-4.34-23.79-6.84-3.39-1.08-6.94-2.23-10.16-3.21l-.72,0-.29.82a3.16,3.16,0,0,0,1.45,2.48l25.35,8.34a26.21,26.21,0,0,0,11.15,1.72,18.81,18.81,0,0,0,3.84-1.42c2.33-1.14,3.62-2.59,3.88-4.22s-.74-3.67-2.81-5.56C1130.19,12.47,1116.52,9,1100,6.09ZM1085.54,36l-3.49-.57-.5.1a1.19,1.19,0,0,0-.66,1.13,1.26,1.26,0,0,0,1,1l3.54.55.8-.1a.94.94,0,0,0,.4-.94A1.49,1.49,0,0,0,1085.54,36Zm-42.77-1.75c-.67-.74-1.39-1-1.83-.84l-.55.7a2.56,2.56,0,0,0,.51,2l1.43,2.26h3.17ZM971,3.54l.88.29c.85.11,1.87-.12,1.74-.36A15,15,0,0,0,970.25,0h-3.77C967.85,1.15,969.34,2.33,971,3.54Zm61,28.63a13.11,13.11,0,0,0-.72,2.31,1.47,1.47,0,0,0,.67,1.61,2.28,2.28,0,0,0,2.34.14l.37-.19.08-.07,3.49-7.12a2.34,2.34,0,0,0-.24-2,2.17,2.17,0,0,0-1.08-1c-3.83-.35-7.69-2.72-12.59-6.21a26.18,26.18,0,0,0-13.44-4.22l.77,1.32c6.93,1.81,12.89,4,19.4,10.74a4.8,4.8,0,0,1,1.22,4ZM961.47,18.72l.47.12a1.41,1.41,0,0,0,1.4-.63,1.17,1.17,0,0,0-.09-1.4l-4.73-3.58-.81.35-.16,1ZM996.1,0h-4a1.7,1.7,0,0,0,.31.42c7.94,10.85,16.18,22.65,23.38,37.92H1020A82.14,82.14,0,0,0,1015.53,28,160,160,0,0,0,996.1,0ZM953.94,8.43a5.85,5.85,0,0,0-1.22-.74l-.23-.11-.65-.35a40.32,40.32,0,0,1-6.44-5.36l-.17.34c-.62,1.33-.61,2.22,0,2.91l3.11,3.28a4.14,4.14,0,0,1,.06,4.72,2.6,2.6,0,0,1-2.47,1.2,3.74,3.74,0,0,1-2.38-1.64c-.2-.4-.4-.59-.61-.62s-.32,0-.9.37c-2.17,1.29-2,2.39-1.53,3.16,2,2.69,3.81,4.1,5.49,4.35,1.3.16,2.6-.44,4-1.79a25.52,25.52,0,0,0,3.92-8.26A1.82,1.82,0,0,0,953.94,8.43ZM948,27.91a1.39,1.39,0,0,0-1.28.54,1.11,1.11,0,0,0,.18,1.34l2.46,2.38.7.36A1.11,1.11,0,0,0,951,32a1.34,1.34,0,0,0-.13-1.53L948.5,28.1Zm144.06,3.94a24.14,24.14,0,0,0-10.18-2.17.82.82,0,0,0-.34.84,2.5,2.5,0,0,0,1.47,2l5.7,1.86a4,4,0,0,1,2,3.64c0,.13,0,.24,0,.36h4.9C1095.75,35.56,1095.33,33.45,1092.1,31.85Zm-184-4.73a72.07,72.07,0,0,0,3.2-20.35c0-1.22-.32-2-.87-2.06l-.8.33a2.21,2.21,0,0,0-.7,1.54c-.32,6.71-1,14.18-3.4,18.74-1.58,2.08-3.06,3.35-4.3,3.65v4A10,10,0,0,0,908.06,27.12Zm.05-26a2.08,2.08,0,0,0,1.77,1.4l.42,0h.11L915.51,0h-7.3A1.4,1.4,0,0,0,908.11,1.12Zm129,20.82c.37.46,3.79.54,6.12-.63a2.16,2.16,0,0,0,1.23-1.1c.87-1.69.18-3.78-2.32-6.48-2.94-3.67-6.41-4.53-10.52-2.7a.84.84,0,0,0-.46,1.12,1.54,1.54,0,0,0,1.2.58c3.75-1.65,6.29-.33,8.79,4.07.71,2.35-.31,2.68-1.1,3.06a5.34,5.34,0,0,1-2.43.5,1.11,1.11,0,0,0-1,.94C1036.66,21.43,1036.76,21.67,1037.13,21.94Zm129.65-1-.9.25a2.62,2.62,0,0,0-.91,1.87l-.5,3.49c-.27,1.76-.53,3.53-.77,5.29s-.53,3.39-.79,5.06a8.48,8.48,0,0,1-.15,1.42h3.11l1.82-15.71C1167.64,21.67,1167.27,21,1166.78,21ZM1162,11.72h0a4.74,4.74,0,0,0-.57-.72,137.69,137.69,0,0,0-20.83-11h-12.18A213.63,213.63,0,0,1,1154,11.09c1.39.88,2,1.74,2,2.6a1.43,1.43,0,0,1-.89,1.22c-1.06.51-2.76.3-4.5-.51C1138,7.89,1124.35,3.47,1111.5,0h-12.57a3.69,3.69,0,0,0,1.14.91C1110.68,3,1123.76,8,1135.29,12.39l.42.14c8.21,3.16,15.33,5.85,19.43,6.69a10.66,10.66,0,0,0,5.33-.92,4.54,4.54,0,0,0,2.71-3.12,3.71,3.71,0,0,0-.61-2.68A6.12,6.12,0,0,0,1162,11.72ZM925.24,35.57c-.72.31-.77.49-.35,1.38a2,2,0,0,0,1.6,1.38,4.92,4.92,0,0,0,2-.3l3.81-3.23.49-.8c-.06-.06-.09-.22-.54-.28-1.93-.44-3-2.32-4-4-.83-1.43-1.68-2.89-2.94-3.59l-.76-.24a.89.89,0,0,0-.88.23c-.19.15-.13.4,0,.8a12.72,12.72,0,0,0,1.4,2.45C926.42,31.29,928,33.69,925.24,35.57ZM1054.53.29a11.94,11.94,0,0,1-5.14.87l-.28.7a.88.88,0,0,0,.6.74l3.65.63c4.64-.75,7.15,1.18,7.9,3.08a2.89,2.89,0,0,1-1.2,3.81,5.8,5.8,0,0,1-3.75.15,3.54,3.54,0,0,0,1.24,1.53c4,2.34,8,2.33,10.08,1.27a2.53,2.53,0,0,0,1.62-2c.13-1.16-.69-2.44-2.36-3.74A24.57,24.57,0,0,1,1059.52,0H1055ZM916.88,4.67A2.67,2.67,0,0,0,916,6.53l-.49,3.5c-.28,1.76-.53,3.52-.78,5.29s-.53,3.39-.79,5.06a6.24,6.24,0,0,1-2.52,5.26l-.1.1a7.84,7.84,0,0,0-1.52,1.69c-.92,2.27-.7,2.88-.62,3l.18,0a2.12,2.12,0,0,0,.94-.11c4.14-2.64,6.28-5.35,6.6-8.55l1.82-15.73c0-1-.42-1.6-.9-1.68Zm167.7-1.46c.75-.37,1.41-1.11,1.14-1.23-3-1.52-19.1-1.4-19.1-1.4a3.59,3.59,0,0,0,1.28,1,78.35,78.35,0,0,0,15.78,1.86ZM1051.3,38.29c2.22-3.91,2.72-7.62,1.57-11.06a6.3,6.3,0,0,0-3.31-3.74c-1.6-.61-3.71-.36-6.47.74l-.73.28c-1.12.57-1.56,1.46-1.42,2.07a1.23,1.23,0,0,0,1,.84l3.76-1a3.89,3.89,0,0,1,2.8.53c.82.63,1.67,2.89,1.56,4.82-.79,4-1.93,4.72-.38,6.3a1.54,1.54,0,0,0,.18.23h1.38Zm-3.65-7.81c-1.17-1.77-2.1-1.29-2.47-1.11a6.64,6.64,0,0,0-1.36,1,1.41,1.41,0,0,0-.31,1.51,2,2,0,0,0,1.82.6,9.56,9.56,0,0,0,1.33-.5C1048,31.33,1047.85,30.83,1047.65,30.48Zm23.25-4.67a4.12,4.12,0,0,1-3,0c-.42-.2-.71-.25-.9-.15s-.27.15-.47.78c-.87,2.22,0,3,.88,3.36,3.38,1,5.76,1.18,7.26.45,1.15-.59,1.79-1.77,2-3.6a24.64,24.64,0,0,0-2.35-8.74,2,2,0,0,0-1-1.16,5.82,5.82,0,0,0-1.46.08l-.26,0-.75.08a46,46,0,0,1-8.69-.73l.08.36c.4,1.41,1,2.11,2,2.29l4.65.91a4.6,4.6,0,0,1,3.19,3.73A2.26,2.26,0,0,1,1070.9,25.81ZM1044.21,8.87l1.1,1.16c8.75,9.51,14.36,15.62,10,28.31H1061a32.62,32.62,0,0,0,1-6.06c1.71-10.83-12.33-24.7-21-32.28h-6.76A53.39,53.39,0,0,1,1044.21,8.87ZM924.34,5.27c.24-2-.82-2.18-1.23-2.24a7.37,7.37,0,0,0-1.76.07c-.68.2-1.17.59-1.25,1s.34,1.05,1,1.48a9.41,9.41,0,0,0,1.39.32C924.05,6.14,924.27,5.67,924.34,5.27Zm3-2.32c.23.95-.58,3.22-2,4.7-3.28,2.76-4.66,2.7-4.48,4.82-.08.95.32,1,.53,1h.65c4.37-1.9,7.22-4.59,8.59-8,.64-2,.6-3.58-.16-4.8a4.4,4.4,0,0,0-.63-.75h-7.2l2.78,1A3.42,3.42,0,0,1,927.33,3Zm7.91,28.89a2.72,2.72,0,0,0,1.71-.37,35.23,35.23,0,0,1,3.65-2.65c1.94-1.2,3.75-2.35,5-4.42.31-.9.26-1.24.19-1.34s-.25-.22-1.1-.35c-3.23-.66-5.12-2.81-7.09-5.08l-.67-.35a1.6,1.6,0,0,0-1.44.61,1.06,1.06,0,0,0-.25,1.12l3.12,4.29a2.51,2.51,0,0,1-.42,2.7,3,3,0,0,1-2.62,1.08,2.21,2.21,0,0,1-1.3-.62l-3.3-3.31-.75-.28a1.24,1.24,0,0,0-1.16.53,1.14,1.14,0,0,0-.09,1.16,31,31,0,0,0,4.72,6.24A3.16,3.16,0,0,0,935.24,31.84Zm-14-9,.22,0c4.55-1.15,8.81-3.87,13-8.3,3.68-3.31,5.4-8.67,6-14.56h-4.52c-.89,7.05-4.33,12.59-15,18.24a3.1,3.1,0,0,0-1.12,3.27A1.63,1.63,0,0,0,921.28,22.82ZM955.21,0H947.4a8.17,8.17,0,0,0,4.42,2.37,2.89,2.89,0,0,0,2.58-.67A2.87,2.87,0,0,0,955.21,0Zm263.6,33-9-10-.45-.3-.43.16a2.44,2.44,0,0,0-.21,2.45c2.69,3.12,5.39,6.35,6.59,8.79a4,4,0,0,1-.26,4.19h5.44A5.46,5.46,0,0,0,1218.81,33Zm77.31-20a7.33,7.33,0,0,1-2.12.7l-.31.2a2.37,2.37,0,0,0,.66.52,11.36,11.36,0,0,0,7.23-.56,2.94,2.94,0,0,0,1.93-2.41c0-1.54-1.75-3.42-4.8-5.2l-.54-.38-.12-.12-.1-.17c-.15-.26-.39-.88-4.23-1.64l-.22,0c.17.65-.25,1.35-1.2,2a16.46,16.46,0,0,1-2.12,1.27c-.8.39-1.78.81-3,1.28l-.3.42a2.28,2.28,0,0,0,2.22.56c5.38-2.48,8.2-1.78,9-.3C1298.84,10.51,1298,12.12,1296.12,13.05Zm13.65,14.12a5.78,5.78,0,0,1-3.74.15,3.46,3.46,0,0,0,1.24,1.53c4,2.34,8,2.33,10.08,1.27a2.52,2.52,0,0,0,1.61-2c.14-1.16-.68-2.44-2.35-3.74a24.75,24.75,0,0,1-8.34-9c-.39-.69-.68-.83-1-.9a4.64,4.64,0,0,0-.9,1.1,6.92,6.92,0,0,1-2.12,1.7,12,12,0,0,1-5.15.87l-.27.7a.86.86,0,0,0,.6.74l3.65.63c4.63-.75,7.15,1.18,7.9,3.08A2.89,2.89,0,0,1,1309.77,27.17ZM1281.35,4.62l-.06,0-.46.42c2.36.55,5.19.22,8.66-1,1.08-.6,1.33-1,1.37-1.26a1.39,1.39,0,0,0-.48-.9c-1.52-.76-3-1.4-4.4-1.94h-5.46l.91.32c1.35.57,2,1.2,2,2S1282.81,3.9,1281.35,4.62Zm-5.78-3a8.21,8.21,0,0,0-3,.94c-.85.44-1.74,1-2.36,1.38-.29.24-.33.4-.28.48s.42.43,1.4.42a11.37,11.37,0,0,0,3.65-1,5.36,5.36,0,0,0,1.62-1.16c.35-.53.27-.68.26-.71S1276.69,1.64,1275.57,1.59ZM1259.2,4.24c1.25-.76,2.56-1.51,3.91-2.17a31.76,31.76,0,0,1,5.2-2.07h-5.9c-1.12.46-2.2,1-3.23,1.47-1.18.58-2.44,1.27-3.68,2-.45.3-.68.6-.62.7C1255.21,4.7,1257.42,5,1259.2,4.24ZM1324,35a2,2,0,0,0-1-1.16,5.8,5.8,0,0,0-1.46.08l-.27,0-.75.08a46,46,0,0,1-8.68-.73l.08.36c.39,1.41,1,2.11,2,2.29l4.66.91a5.13,5.13,0,0,1,2.23,1.53h4.49A34.9,34.9,0,0,0,1324,35Zm-60.5-1.77a17.6,17.6,0,0,0-2.64-.22l.73,1.28a11.72,11.72,0,0,1,9.09,4.09h1.59C1269.79,35,1266.86,33.3,1263.52,33.18Zm83.5,2.09a1.64,1.64,0,0,0-1.17.3,1.5,1.5,0,0,0-.61,1.13l-.3,1.64h3.29l.27-1.43A1.62,1.62,0,0,0,1347,35.27Zm-52.82,2c.87-1.69.17-3.78-2.32-6.48-2.94-3.67-6.41-4.53-10.52-2.7a.85.85,0,0,0-.47,1.12,1.56,1.56,0,0,0,1.2.58c3.75-1.65,6.29-.33,8.8,4.07.71,2.35-.31,2.68-1.1,3.06a5.34,5.34,0,0,1-2.43.5,1.11,1.11,0,0,0-.95.93h6.6A2.21,2.21,0,0,0,1294.2,37.26Zm-52.88-26.65-.32,0c-.65,1-.56,3.71.39,4.71,5,7.05,10.11,14.5,15,23h5.09a171,171,0,0,0-19.35-26.93C1241.77,10.9,1241.53,10.66,1241.32,10.61ZM958.87,30.79a20.86,20.86,0,0,0-6.67-7.32.93.93,0,0,0-.83.48,2.27,2.27,0,0,0-.13,2.37l3.31,4.62a3.76,3.76,0,0,1-.82,4,4.12,4.12,0,0,1-3.62,1.64,3.06,3.06,0,0,1-1.74-.81l-3.84-3.67-.59-.43c-.39-.06-.87.29-1.17.86a1.67,1.67,0,0,0,0,1.91l4.07,3.9H957C959.17,36,960.49,34,958.87,30.79Zm328.39,3.69a.91.91,0,0,0,.5-.77c-.67-1.47-1.39-1.89-1.84-2a2.86,2.86,0,0,0-1.56.48c-.53.59-.81,1.05-.75,1.33s.5.72,1.11,1A4.65,4.65,0,0,0,1287.26,34.48Zm-24.36-6a25.11,25.11,0,0,0-3.86-.3l.89,1.74c5.17.12,9.44,1.63,12.76,5.59a16.54,16.54,0,0,0,1.91,2.82h2.16C1273.36,32,1268.73,28.67,1262.9,28.49ZM1351,9.26l0,0a1.45,1.45,0,0,0-1.07.77c-.32.67,0,0-.91,2-5.76,19.21-2.09,20-2.09,20a4.19,4.19,0,0,0,2.51,1A6.73,6.73,0,0,0,1351,33V29a2.59,2.59,0,0,1-.67.07c-.71-.06-1.89-.52-1.88-3.14A67.5,67.5,0,0,1,1351,12.33Zm-165.27-6a3.16,3.16,0,0,1,1.14,2.46,1.8,1.8,0,0,1-.91,1.15,9.7,9.7,0,0,1-4.65.59,54.34,54.34,0,0,1-18.38-4.5c-2-1-4-2-6-2.92h-9.5c8,3.56,13.29,4.67,19.86,8.53a7.1,7.1,0,0,1,.64.75c10.69,4.28,20.64,3.76,30.41-1.61.93-.52,1.91-1.11,2.85-1.72,1.37-1.21,1.3-1.71,1.3-1.72-.06-.18-.52-.42-1.57-.54A32.22,32.22,0,0,1,1189.24,0h-8.42C1182.44,1.05,1184.07,2.13,1185.73,3.22Zm-10.37,1.25a4.49,4.49,0,0,0,2.8-.23.83.83,0,0,0,.5-.64c0-.71-1-1.73-2.67-2.75L1174.47,0h-8.33C1169.09,1.42,1172.15,2.9,1175.36,4.47ZM1333.8,34.23a.93.93,0,0,0,.38-1.08,1.14,1.14,0,0,0-.92-.79l-4.87.24-.23.61.54.69,4.76.49ZM981.65,32.54c-1.8-2.82-3.68-5.8-5.43-8.45l-.57-.39-.81.45a3,3,0,0,0-.66,2.74l7.15,11.45h4C984.12,36.41,982.88,34.47,981.65,32.54ZM901.74,10.41a1.08,1.08,0,0,0-.55-1.13v3C901.38,11.6,901.56,11,901.74,10.41ZM1250,0h-4.83a8.54,8.54,0,0,0-.59.73,8.44,8.44,0,0,0-1.13,2.1s-2.39,6.5,5.37,9.29c3,1.09,5.69.72,8.81.43,1.63-.14,2.88-.23,4-.26,2.25,0,4.55,0,6.82.18,8.79.34,15.49,2.57,25.43,13.45l1.1,1.16c3.79,4.12,7,7.61,9,11.26h5.09c-5.43-10.39-17.81-20.83-22.76-25a23.61,23.61,0,0,0-17-4.88l-17.76.64A6.11,6.11,0,0,1,1247,6c-.77-1.68.18-2.55,1.52-4.39A9.36,9.36,0,0,1,1250,0Zm-15.61,4.87a2.56,2.56,0,0,1,0,3.1,2.72,2.72,0,0,1-2.78.85,5.76,5.76,0,0,1-2.37-1.22,70.8,70.8,0,0,0-7.61-7.6h-3.53a134.2,134.2,0,0,1,12.63,12.44,6.11,6.11,0,0,0,2.87,1.83,3.5,3.5,0,0,0,3-.95c2.81-3.8,1.84-8.15-3-13.23l-.11-.09h-3.7A53.16,53.16,0,0,1,1234.41,4.87ZM1300,1.14l-.36,0a10.35,10.35,0,0,0,4.09,1.14c10.52-.65,28.25-1,37,.8a2.54,2.54,0,0,1,2,2.16,2.27,2.27,0,0,1-1.53,2.11,6,6,0,0,1-2.57.43C1329,6,1315,6,1308.81,6.53l-.09.44a2,2,0,0,0,2.17,1.14c7.55-.35,21.82.65,32,2.3a6.5,6.5,0,0,0,3.33-.26,2.88,2.88,0,0,0,1.6-2.28c-.35-4.2-3.89-6.74-10.76-7.7-1.64-.06-3.58-.12-5.72-.17h-17.16A99.08,99.08,0,0,0,1300,1.14Zm40.27,12.76c-8-2.11-17.42-2.86-29.54-2.39l-.19.48a2.3,2.3,0,0,0,2,1.53c2.17.21,5.21.29,8.73.36,6.8.14,13.81.29,16,1.67a5,5,0,0,1,2.77,4.21,2.86,2.86,0,0,1-1.62,2.6,5,5,0,0,1-2.27.45l-15.26-.36h-.34l-.1.11c.2.65,1.73,2.07,3.81,2.6a72.19,72.19,0,0,0,11.47,1h1c1.65,0,4.2.05,5.6-.63a3.44,3.44,0,0,0,1.47-1.4C1345,20.29,1342.86,15.27,1340.25,13.9Zm1.6,23.31a8.89,8.89,0,0,0-.13-4.72,5.42,5.42,0,0,0-5.37-3.78l-10.82-.62-.41.08-.11.31a2.34,2.34,0,0,0,1.49,1.41,46.53,46.53,0,0,1,8.91,1.23,3.87,3.87,0,0,1,2.69,2.64,1.81,1.81,0,0,1-.67,2,2.71,2.71,0,0,1-1.77.34l-6.1.12a.81.81,0,0,0-.13.83,2.12,2.12,0,0,0,1,1.26H1341A2.41,2.41,0,0,0,1341.85,37.21Zm-89.58-19.16.75,1.31c2.84-.83,6.4-1.57,8.21-.21a3.48,3.48,0,0,0,2.3-.41c1.08-.54,1.48-1.17,1.48-1.29l-.44-.16C1261.55,16,1256,16.49,1252.27,18.05Zm82,2.21c.75-.37,1.42-1.11,1.15-1.23-3-1.52-19.1-1.4-19.1-1.4a3.59,3.59,0,0,0,1.28,1,78.35,78.35,0,0,0,15.78,1.86Zm-70.38,17.93.26.15h2.3a19.18,19.18,0,0,0-3.21-1.28ZM988.72,5l-.41-.4-.43.33a4.87,4.87,0,0,0-.87,4.4c6.38,7.75,12.54,19,18,29.06h5.36C1004.05,26,996.05,14.81,988.72,5Zm47.89,32.86-.39.53h1.83C1037.52,37.82,1037,37.62,1036.61,37.81Zm-19.1-11,2.62,4.55c2.78,2.49,4.41,4.76,5,6.93h4.24c-.11-.22-.23-.44-.37-.67A40.44,40.44,0,0,0,1017.51,26.86ZM1160.4,22.1l-.88.28a2.22,2.22,0,0,0-.87,1.53,71.76,71.76,0,0,1-2.89,14.43h2.84a78.17,78.17,0,0,0,2.6-14.06C1161.32,23,1161,22.18,1160.4,22.1Zm10.74,8.46h.65c4.37-1.9,7.22-4.59,8.59-8,.63-2,.59-3.58-.16-4.8s-2.72-2.33-5.65-3l-.76-.18a2.43,2.43,0,0,0-2.51.86,1.09,1.09,0,0,0,.23,1.22l3.63,1.3a3.44,3.44,0,0,1,1.89,2c.23.95-.58,3.22-2,4.7-3.28,2.76-4.66,2.7-4.48,4.82C1170.52,30.47,1170.93,30.53,1171.14,30.56Zm13.13,1.05c4.56-4.11,6.1-10.8,6.28-18.33l-4.56,1c-.22,7.72-2.33,13.09-11.37,18.74-.27-.16-.55-.33-.8-.5l.64.61c-1.14.7-2.38,1.41-3.75,2.13a3.12,3.12,0,0,0-1.16,3.05h5.86A31.48,31.48,0,0,0,1184.27,31.61Zm-224-24.28-.46-.26-.4.18a2.4,2.4,0,0,0,0,2.38c2.84,2.81,5.69,5.74,7,8a4,4,0,0,1-.07,4.36,2.76,2.76,0,0,1-2.6,1.24,3.4,3.4,0,0,1-2-1.08l-5.74-4.64a1.19,1.19,0,0,0-.93.61,2,2,0,0,0,0,2.35l7,6.58a4.86,4.86,0,0,0,2.36,1.18,3.76,3.76,0,0,0,2.08-.34A12.37,12.37,0,0,0,971,23.71c1.51-2.92,1.09-5.34-1.29-7.44Zm209.56,13.86c-.09.48.34,1,1,1.48a9.13,9.13,0,0,0,1.39.32c1.51.2,1.73-.27,1.8-.67.24-2.05-.82-2.18-1.24-2.24a7.3,7.3,0,0,0-1.75.07C1170.39,20.35,1169.9,20.74,1169.82,21.19ZM970.35,30.45a1.38,1.38,0,0,0-1.25.48,1.8,1.8,0,0,0,.25,2c1.7,1.76,3.28,3.58,4.75,5.43h3.41c-1.78-2.28-3.8-4.74-6-7.35A2.47,2.47,0,0,0,970.35,30.45Zm-6.8,2.85a3.34,3.34,0,0,0,.14,3l1.7,2.09h3.52A54.63,54.63,0,0,0,963.55,33.3Zm13-20.21c3.57-2.48,5.25-7.85,4.11-10.47C980,1.74,979.25.87,978.48,0h-2.87a7,7,0,0,1,1.56,2.26,5,5,0,0,1-.66,5.05,3.27,3.27,0,0,1-3,1.22,4.73,4.73,0,0,1-2.1-.92L961.43,0h-2.25a6.41,6.41,0,0,0,1.26,2.76,64.05,64.05,0,0,0,8.34,7.4l.83.58c1.29,1,3.27,2.43,4.84,2.67A3.71,3.71,0,0,0,976.55,13.09Zm6.91.93-.39.09a2.72,2.72,0,0,0-.46,2.5,219,219,0,0,1,14.62,21.73h4c-4.48-8.34-10.45-16-17.61-24.15Zm6,24.32h3.69A153,153,0,0,0,978.86,17.9l-.33.26a2.23,2.23,0,0,0-.72,1.77C981.42,26.23,985.34,32.4,989.48,38.34ZM1221.33,20l.89.36c.87.19,2,0,1.83-.23-1.14-3-13.8-13.09-13.8-13.09a3.21,3.21,0,0,0,.21,1.6A71,71,0,0,0,1221.33,20Zm15.92-.57-.43.32a4.85,4.85,0,0,0-.94,4.38,115.67,115.67,0,0,1,9.37,14.22h5c-4.12-6.59-8.48-12.78-12.61-18.52Zm-5,9.4-.4.08a2.79,2.79,0,0,0-.5,2.5c1.65,2.3,3.29,4.61,4.9,6.94H1240c-2.34-3.07-4.85-6.17-7.55-9.35Zm-36.57,2.55a3.79,3.79,0,0,1-2.38-1.64c-.19-.4-.4-.59-.61-.62,0,0-.32,0-.89.37-2.17,1.29-2,2.39-1.53,3.16,2,2.69,3.81,4.1,5.49,4.35,1.3.16,2.6-.44,4-1.79a25.32,25.32,0,0,0,3.93-8.26,1.9,1.9,0,0,0,0-1.46,5.85,5.85,0,0,0-1.22-.74l-.24-.11-.64-.35a40.83,40.83,0,0,1-6.45-5.36l-.17.34c-.62,1.33-.6,2.22.06,2.91l3.11,3.28a4.17,4.17,0,0,1,.06,4.72A2.62,2.62,0,0,1,1195.69,31.37Zm77.1-10.17c-.31.31-.32.51-.32.55s.23.57,1.74,1.19a2.61,2.61,0,0,0,1.65.1c.42-.17.3-.71.14-1C1275.59,21.17,1274.45,20.59,1272.79,21.2ZM1207.51,29l-.88.3-.26,1,3.71,4.56.47.17a1.52,1.52,0,0,0,1.52-.55,1.2,1.2,0,0,0,0-1.45Zm70.57-4.64-.06,0,.31.7a3.84,3.84,0,0,0,2.15-.32,2.61,2.61,0,0,0,1.51-1.89,3.28,3.28,0,0,0-1.31-2.82c-4.71-3.48-8.39-2.84-12.44-.83l-.54.26c-.46.4-.5.77-.45.87s.79.61,2.2-.05c2.25-1.13,4.93-2.47,8.94.37,1.08.79,1.2,1.49,1.17,2C1279.5,23.41,1279.27,23.78,1278.08,24.35ZM1255.25,22l1.39,2.4c7.26-.16,13.36,1.69,18.33,7.05,2.37,3.82,4.68,5.94,6.8,6.25l.49,0-.41-.9c-5.37-9.85-12.45-14.76-21.16-14.65A37.6,37.6,0,0,0,1255.25,22Zm-50.67,11.22a1.34,1.34,0,0,0-1,.56,2.12,2.12,0,0,0-.25,2.42l2,2.15H1210ZM1216.9,7.44c5.11,4.53,10.37,9.2,11,11.72a5.15,5.15,0,0,1-1.13,5.15,3.47,3.47,0,0,1-3.25,1,4.73,4.73,0,0,1-2.1-1.11L1210,14l-.26-.22-.16,0c-.35.65-.28,2.77.91,4.54a65.62,65.62,0,0,0,8,8.27l.82.67c1.25,1.08,3.18,2.76,4.78,3.12a3.87,3.87,0,0,0,2.22-.16c3.93-2.27,6.15-7.68,5.21-10.46-4.26-6.5-10.41-12.82-19.2-19.8h-2.38a2.5,2.5,0,0,0,.59,1.5C1212,3.08,1214.25,5.11,1216.9,7.44Zm-17.31,6.64a5.34,5.34,0,0,1-3.08-1.94,3.19,3.19,0,0,0,0,1.91c1.68,4.08,4.81,6.23,7.2,6.54a2.89,2.89,0,0,0,2.58-.67c.88-.85,1.08-2.32.61-4.28a23.26,23.26,0,0,1-1.14-8.89,7.53,7.53,0,0,1-2.7,2.14,4.25,4.25,0,0,1,.06,2.81A3.33,3.33,0,0,1,1199.59,14.08Zm27.67,18.82a2.24,2.24,0,0,0-.75,1.75c.69,1.24,1.38,2.47,2.09,3.69H1232c-1.4-1.92-2.84-3.82-4.35-5.7Zm-40,1.78-.67-.35a1.6,1.6,0,0,0-1.44.61,1,1,0,0,0-.25,1.12l1.66,2.28h4.49A20.15,20.15,0,0,1,1187.3,34.68Z" transform="translate(1.3)"/><rect class="cls-3" y="38.34" width="1349.8" height="11.12"/></svg>